<?xml version="1.0" encoding="UTF-8" standalone="no"?>
<!-- Created with Inkscape (http://www.inkscape.org/) -->

<svg
   xmlns:dc="http://purl.org/dc/elements/1.1/"
   xmlns:cc="http://creativecommons.org/ns#"
   xmlns:rdf="http://www.w3.org/1999/02/22-rdf-syntax-ns#"
   xmlns:svg="http://www.w3.org/2000/svg"
   xmlns="http://www.w3.org/2000/svg"
   xmlns:sodipodi="http://sodipodi.sourceforge.net/DTD/sodipodi-0.dtd"
   xmlns:inkscape="http://www.inkscape.org/namespaces/inkscape"
   version="1.1"
   id="svg2"
   xml:space="preserve"
   width="1072.9467"
   height="1077.8267"
   viewBox="0 0 1072.9467 1077.8267"
   sodipodi:docname="logo.svg"
   inkscape:version="0.92.3 (unknown)"><metadata
     id="metadata8"><rdf:RDF><cc:Work
         rdf:about=""><dc:format>image/svg+xml</dc:format><dc:type
           rdf:resource="http://purl.org/dc/dcmitype/StillImage" /><dc:title /></cc:Work></rdf:RDF></metadata><defs
     id="defs6" /><sodipodi:namedview
     pagecolor="#ffffff"
     bordercolor="#666666"
     borderopacity="1"
     objecttolerance="10"
     gridtolerance="10"
     guidetolerance="10"
     inkscape:pageopacity="0"
     inkscape:pageshadow="2"
     inkscape:window-width="1299"
     inkscape:window-height="713"
     id="namedview4"
     showgrid="false"
     inkscape:zoom="0.39"
     inkscape:cx="524.28789"
     inkscape:cy="617.34471"
     inkscape:window-x="67"
     inkscape:window-y="27"
     inkscape:window-maximized="1"
     inkscape:current-layer="g12" /><g
     id="g10"
     inkscape:groupmode="layer"
     inkscape:label="ink_ext_XXXXXX"
     transform="matrix(1.3333333,0,0,-1.3333333,0,1077.8267)"><g
       id="g12"
       transform="scale(0.1)"><path
         d="m 4551.0639,2220.9174 c 17.2186,-32.1724 22.6343,-25.651 7.6441,-14.0018 28.8662,2.0075 57.24,10.805 83.0356,25.9066 41.032,24.2189 127.7343,91.4662 245.7255,183.8277 56.0482,43.8598 108.9998,85.2772 134.8861,103.7289 29.0994,20.9966 41.6409,58.6804 30.4469,92.5022 -6.9576,20.9326 -22.5825,37.8499 -42.0426,47.6832 182.2923,133.3441 363.7684,226.4087 476.1367,252.6095 6.3227,14.3472 11.6347,28.0805 14.6923,40.3561 3.0965,12.2501 3.7054,20.3573 3.5889,25.3059 -2.1249,0.1662 -4.6902,0.2813 -7.7349,0.2813 -4.2366,0 -8.7195,-0.2047 -13.4354,-0.601 -104.9704,-8.836 -310.8947,-108.4987 -517.5316,-259.6681 19.4601,-9.8461 35.0851,-26.7634 42.0425,-47.6832 11.1941,-33.8347 -1.3474,-71.5054 -30.4468,-92.5148 -25.8863,-18.4391 -78.8379,-59.8565 -134.886,-103.7291 -117.9912,-92.3485 -204.6934,-159.5961 -245.7255,-183.8277 -25.7956,-15.1016 -54.1695,-23.8991 -83.0357,-25.9067 14.9903,-11.649 27.5577,-26.6356 36.6399,-44.269 z m -746.5567,-366.837 c 206.067,170.12 361.5402,334.0125 445.7678,472.3435 22.6732,37.543 41.5891,74.5362 57.5898,110.9922 -8.3956,70.1758 12.9821,155.9262 57.7583,244.4515 1.1273,106.5806 -32.9473,202.9827 -102.5734,284.053 -2.371,2.8131 -4.9103,5.1661 -7.3202,7.9153 101.5629,-159.0334 85.1993,-365.6861 -49.7386,-589.141 -87.7127,-144.0598 -252.0738,-315.7524 -471.0579,-493.4166 25.2126,-9.8078 48.2875,-22.5182 69.5742,-37.1979 z m 3274.3834,68.0019 c 16.8948,1.5985 36.2642,7.8769 57.2919,17.5951 12.5156,41.2131 35.1758,96.7986 75.6118,169.1354 65.8947,116.4522 169.7639,261.7651 270.5364,400.6715 l 22.3882,30.8937 c 72.5801,100.1105 141.1567,194.6328 189.0295,270.9079 149.047,240.6026 125.4022,450.094 37.8836,548.5932 -3.9903,4.8591 -8.6287,8.6568 -12.9949,12.915 59.3519,-109.8031 59.9738,-294.7688 -69.1727,-503.2244 -47.8728,-76.2879 -116.4494,-170.8103 -189.0295,-270.9208 l -22.3881,-30.8935 c -100.7727,-138.9065 -204.6417,-284.2066 -270.5364,-400.6718 -76.156,-136.2595 -90.4078,-214.7084 -89.3972,-245.0779 0.4536,0.038 0.7385,0.077 0.7774,0.077 z m -810.4821,-2.4295 c 17.3741,99.893 80.0817,273.0818 227.872,480.5655 208.2046,291.8788 433.6149,482.3303 568.5528,559.6668 15.897,41.1746 23.9298,71.4416 26.9615,91.9011 -112.0574,-36.1877 -388.6701,-241.229 -639.7982,-593.284 -197.5289,-277.3143 -243.1214,-493.4295 -231.5257,-555.0635 13.0727,2.3018 29.1125,7.4294 47.9376,16.2141 z m -830.1494,-15.4084 c -4.6253,5.5879 -9.7042,10.754 -14.6535,16.035 3.7703,-6.1762 7.7479,-12.1861 11.1941,-18.6436 1.1532,0.8313 2.2934,1.7646 3.4594,2.6086 z m -106.3438,116.5674 c 214.4107,163.2916 377.4891,322.1075 467.4952,457.779 159.6322,242.3158 172.8214,469.5302 37.5339,639.1769 -5.4804,6.9818 -11.2849,13.03 -16.9337,19.5516 104.9185,-164.7621 82.9321,-376.0821 -64.8842,-600.4578 -93.4134,-140.7989 -264.9394,-306.456 -491.4898,-476.269 24.9016,-10.7411 47.4971,-24.2573 68.2786,-39.7807 z m -2425.8492,-435.491 c -146.9351,-245.1675 -399.2811,-435.0178 -643.4259,-476.154 -34.9945,-5.8693 -68.8618,-8.836 -100.7338,-8.836 -107.6264,0 -197.2567,34.2568 -260.0938,98.6655 11.6346,-19.4237 24.9923,-57.2736 40.164,-73.4876 63.0055,-67.3753 154.074,-83.4488 264.2137,-83.4488 31.8721,0 65.7393,2.9667 100.7468,8.8232 232.3417,39.154 471.939,213.1357 621.2193,441.1811 -11.3108,31.1367 -19.3435,62.2989 -22.0903,93.2566 z m 1531.5801,108.8055 c -9.3932,30.2672 -14.9773,60.3937 -16.5061,90.1748 -125.2467,-156.7189 -318.8626,-282.9789 -452.9713,-358.6147 -37.1711,-449.40341 -462.5071,-1096.49564 -728.8715,-1283.25155 -42.6517,-29.24415 -93.893,-59.894881 -156.0823,-69.2934 -12.4637,-1.892501 -24.6813,-2.813177 -36.7953,-2.813177 -72.2173,0 -141.0402,32.543227 -204.577,96.696207 -16.4542,16.64884 -35.4219,35.8551 -54.6099,58.07908 32.2737,-48.56545 69.5484,-86.67108 98.8939,-116.34998 63.5368,-64.165772 132.3597,-96.708993 204.577,-96.708993 12.1269,0 24.3315,0.933461 36.7953,2.813166 62.1893,9.398529 113.4306,40.062035 156.0821,69.2934 266.3646,186.768687 691.7006,833.848237 728.8716,1283.251547 124.7802,70.3803 300.3873,184.9529 425.1935,326.7236 z M 5479.5244,1586.4461 C 5424.8235,1138.3724 4973.2645,506.79105 4698.8931,329.67671 c -43.9082,-27.6842 -96.4582,-56.48075 -159.114,-63.62875 -9.3931,-1.0486 -18.7604,-1.57279 -28.0759,-1.57279 -75.5859,0 -146.1967,35.03665 -209.9795,104.20226 -12.0103,13.06836 -25.4977,27.85031 -39.3088,44.12834 27.8684,-41.57094 58.7171,-75.36736 83.5927,-102.39926 63.783,-69.17832 134.3937,-104.20229 209.9796,-104.20229 9.3284,0 18.6827,0.52428 28.0759,1.56004 62.6557,7.16076 115.1927,35.95734 159.114,63.64153 274.3842,177.11432 725.9305,808.68301 780.6311,1256.76941 79.3044,40.6758 190.3641,103.7418 295.9174,184.0577 -15.1197,18.7459 -29.1382,38.6428 -40.7469,60.8924 -106.6029,-81.5819 -219.2692,-145.5431 -299.4543,-186.6792 z m 2435.1127,801.3944 c -9.7172,24.0781 -24.9924,43.6552 -44.1414,57.7977 25.3809,-63.245 13.5131,-189.5179 -70.3517,-329.4857 -143.5537,-234.682 -454.3706,-485.0411 -726.7469,-498.8128 -8.1363,-0.3963 -16.0266,-0.6522 -23.8132,-0.6522 -143.2298,0.1279 -257.1787,42.3638 -331.3653,117.6928 67.9547,-111.1458 199.1871,-175.8101 375.6492,-175.9636 7.7736,0 15.677,0.243 23.8134,0.6392 272.3762,13.7846 583.1801,264.1308 726.7467,498.8129 84.0463,140.2875 95.8104,266.8673 70.2092,329.9717 z m -5696.1125,221.1148 c 176.6954,297.1856 213.1538,562.3521 108.4297,787.8402 -26.8063,58.1814 -58.7949,108.0512 -95.4866,150.1336 18.631,-28.0805 35.8367,-58.5011 51.2025,-91.8627 104.7243,-225.4753 68.2658,-490.6547 -108.4296,-787.8401 -232.6138,-389.8282 -726.8633,-772.9047 -1259.29433,-976.0538 -30.61537,-11.1631 -60.64755,-19.6026 -90.48555,-25.587 -35.65518,-7.1479 -71.34924,-10.8052 -105.94201,-10.8052 0,0 0,0 -0.0386,0 -15.71576,0 -31.22421,0.7673 -46.44758,2.2507 C 578.90398,1427.3231 486.74726,1168.1793 384.34213,848.16886 361.59124,772.1751 311.01059,750.36019 282.92179,744.24797 c -8.47332,-1.85416 -17.38708,-2.81313 -26.30085,-2.81313 -28.37386,0 -56.087,9.32179 -84.77184,28.528 -11.86779,8.61856 -23.70705,18.83544 -35.23024,30.51014 23.15512,-39.6657 51.36053,-68.33439 79.50128,-88.79377 28.6978,-19.19351 56.41082,-28.5153 84.78468,-28.5153 8.91389,0 17.82765,0.95897 26.30097,2.81314 28.07584,6.09951 78.66945,27.91428 101.42034,103.921 102.41797,320.01035 194.56185,579.15415 287.69028,808.84925 15.22349,-1.4833 30.73194,-2.2378 46.43474,-2.2378 0.0522,0 0.0522,0 0.0522,0 34.59278,0 70.28683,3.6571 105.94203,10.7923 29.83796,5.9844 59.87014,14.4239 90.4854,25.5998 532.43112,203.1363 1026.68062,586.2257 1259.29452,976.0537 z M 6162.8811,1578.3262 c -13.2282,-0.9206 -26.1714,-1.3937 -38.8684,-1.3937 -117.8228,0 -215.7709,39.8702 -284.9566,112.0791 67.9807,-108.422 183.018,-170.3629 329.2405,-170.3629 12.697,0 25.6402,0.4859 38.8684,1.4066 187.7728,13.516 358.2881,122.002 490.3885,239.0297 -15.3658,19.1039 -29.3326,39.3203 -40.1379,61.8001 -132.6446,-118.3832 -304.8573,-228.9023 -494.5345,-242.5589 z M 2266.7213,1417.5281 h 0.1555 c 14.8865,3.1202 30.7577,9.4115 47.1473,17.6974 6.3225,40.8293 20.0949,96.5044 47.6914,170.1966 45.3463,119.0609 118.7685,264.8085 196.3886,416.1825 l 13.5521,26.3414 c 47.7821,93.0775 92.96,181.0274 126.1406,254.2079 77.7365,170.1711 81.1182,323.591 42.8976,429.5579 18.1128,-3.9384 36.7565,-5.946 55.7243,-5.946 13.1504,0 26.4564,0.9589 39.5291,2.9282 58.8854,8.7208 111.6816,36.8013 148.6711,79.1011 77.1019,88.3463 120.6085,245.73 34.6448,381.1969 -11.6735,19.1423 -25.5623,36.3793 -40.7341,52.0818 80.8202,-134.0472 37.7412,-288.0043 -38.1816,-374.995 -37.0027,-42.2998 -89.7987,-70.3803 -148.6842,-79.1011 -13.0727,-1.9693 -26.3787,-2.941 -39.5291,-2.941 -18.9677,0 -37.6116,2.0203 -55.7241,5.946 38.2204,-105.9669 34.8389,-259.374 -42.8977,-429.5449 -33.1806,-73.1936 -78.3586,-161.1306 -126.1408,-254.2081 l -13.5519,-26.3543 c -77.62,-151.3611 -151.0423,-297.1087 -196.3887,-416.1824 -52.7832,-140.9523 -55.6853,-217.4065 -50.7102,-246.1649 z m 1232.3976,1094.1172 c 165.3847,125.7486 323.2937,210.8597 424.2737,237.815 5.9597,14.948 10.8831,29.2057 13.5131,41.8522 2.6041,12.4163 2.8892,20.6129 2.5653,25.5488 -1.0624,0.037 -2.2026,0.089 -3.4593,0.089 -5.3768,0 -11.1164,-0.4475 -17.3094,-1.1637 -98.1683,-11.9048 -284.1403,-106.5039 -478.3652,-256.6246 25.679,-5.9334 47.2898,-23.6051 58.7818,-47.5172 z m -2435.035,-152.0387 19.5768,38.9622 c 29.5138,58.8592 58.4837,116.6186 86.4041,173.1376 91.2628,178.8024 139.8093,326.6854 147.4276,449.7997 40.7468,19.6922 83.1133,41.1875 127.2418,63.565 l 14.6922,7.4165 c 131.958,66.9662 296.2284,150.3637 411.136,169.7745 15.3402,2.6087 29.2162,3.9257 41.3041,3.9257 5.8691,0 10.7666,-0.3452 15.2495,-0.8567 -1.8139,15.6002 -5.3769,28.6559 -10.4816,38.4893 -4.3143,8.4778 -10.5463,20.6511 -49.0518,20.6511 -12.0881,0 -25.964,-1.3298 -41.304,-3.9384 -114.9078,-19.3982 -279.1782,-102.7956 -411.1362,-169.7618 l -14.6922,-7.4294 c -44.1285,-22.3775 -86.495,-43.8725 -127.2419,-63.5519 -7.6182,-123.1272 -56.1647,-270.9976 -147.4273,-449.7999 -27.9205,-56.5191 -56.8903,-114.2912 -86.4174,-173.1377 l -19.5637,-38.975 c -35.08504,-70.1757 -71.55659,-143.3692 -108.8831,-220.7824 32.97333,15.7282 65.03966,31.8527 96.3805,48.3097 19.2398,38.9752 38.2334,77.0808 56.7866,114.2019 z m -349.23177,555.3445 c 8.14938,15.5876 16.24693,31.4692 24.42222,46.852 -104.72421,10.102 -193.8103,48.1308 -252.72173,107.6549 8.69348,-15.5365 18.77334,-30.4461 30.7707,-44.3712 45.98123,-53.4247 115.08914,-91.1212 197.52881,-110.1357"
         style="fill:#1e1e1e;fill-opacity:1;fill-rule:nonzero;stroke:none;stroke-width:0.99999994"
         id="path16"
         inkscape:connector-curvature="0" /><path
         d="m 4227.4852,5689.3729 c 13.9796,33.0545 22.3235,69.9965 10.5592,101.0565 0.5183,1.0998 0.7516,1.6879 1.2697,2.8772 66.1539,22.8378 155.5251,57.5804 217.7404,135.2877 11.5438,14.3982 35.2017,16.0093 49.0387,3.3758 0.596,-0.5882 1.192,-1.1124 1.788,-1.6879 16.221,-16.2269 -0.7385,-58.3221 6.7761,-72.196 7.5146,-13.9637 99.2697,-19.0274 107.5357,-36.8782 8.5638,-18.5797 7.7347,-30.3311 4.69,-37.3127 -2.3061,-5.2812 -82.6081,-118.9843 -329.3052,-178.0353 -40.1122,-9.6158 -57.3827,-10.7922 -85.0569,-12.4801 -0.8163,-0.077 -1.5677,-0.5882 -1.775,-1.3299 -40.1898,-118.754 137.0626,-213.2125 135.4302,-209.9773 -24.4093,49.5758 -101.5759,135.876 -75.9747,131.5411 24.7721,2.5702 66.1539,-11.892 82.4526,-24.9732 91.6774,-73.3726 134.1736,-167.6775 187.9025,-189.1216 53.729,-21.38 -100.8373,-46.5706 -247.3709,2.7877 -181.9426,61.4038 -230.839,169.6595 -248.3945,229.5927 -0.3756,1.0996 0.3629,2.1355 1.5549,2.2761 41.6667,5.946 79.7059,26.4438 104.1022,68.9738 0.6737,1.0996 1.8657,9.9866 0.6737,9.1811 -65.8559,-45.2408 -160.2929,-41.4943 -226.3691,-1.5473 -9.5227,5.7288 -17.0372,-2.6469 -11.3106,-11.9687 25.0052,-41.4302 63.3941,-62.5034 103.2213,-65.5851 1.3344,-0.1534 2.1507,-1.3938 1.6324,-2.5702 -31.1076,-69.6387 -110.6581,-205.8726 -296.7854,-267.7879 -204.1883,-68.0147 -324.9003,-30.6379 -271.1712,-9.2579 53.7288,21.4441 133.953,172.6007 263.216,238.109 30.5895,15.498 45.3205,13.145 61.9821,22.109 25.679,4.3348 -51.4875,-81.9655 -75.9745,-131.5412 -1.5679,-3.2352 149.2024,92.5403 157.8442,209.031 0.064,1.0997 -0.8293,1.9821 -1.8657,2.0588 -27.3116,1.7647 -44.284,4.3349 -84.396,12.4801 -255.6888,51.7111 -327.0511,172.7541 -329.3702,178.0353 -3.0447,6.9816 -3.861,18.733 4.7679,37.3127 8.2659,17.8508 99.9433,22.9145 107.4578,36.8782 7.5146,13.8739 -9.445,55.9691 6.8409,72.196 0.5312,0.5755 1.1272,1.0997 1.7232,1.6879 13.9148,12.6335 37.4949,11.0224 49.0388,-3.3758 62.2801,-77.7841 151.7419,-112.5267 217.818,-135.3644 1.3345,-2.7237 2.0083,-4.1943 3.3426,-6.8284 -9.6651,-30.2671 -1.4769,-65.4445 11.9196,-97.0286 0.5831,-1.3939 -0.5959,-2.8645 -2.0987,-2.5702 -13.8372,3.0049 -27.752,5.3577 -41.7447,8.5929 -34.8908,8.0815 -68.758,19.1678 -101.6536,33.3488 -1.2566,0.5114 -3.0447,-1.1125 -1.7101,-2.2121 48.5984,-37.9652 116.1644,-86.6584 181.2817,-84.1649 14.5887,0.5882 -14.135,127.8711 62.0599,124.9301 19.4341,-0.7288 40.41,-0.7288 63.1092,-1.3938 17.8663,-0.4346 47.1083,-0.294 64.9748,0.1408 21.0536,0.5242 40.6951,0.8182 58.9373,1.253 74.109,1.6879 50.9693,-124.3419 65.6357,-124.9301 65.0395,-2.4935 132.6056,46.1997 181.2039,84.1649 1.3346,1.0996 -0.3756,2.7235 -1.7101,2.2121 -32.8956,-14.181 -66.6851,-25.2673 -101.6536,-33.3488 -13.9278,-3.2352 -27.9074,-5.588 -41.6797,-8.5929 -1.5548,-0.2943 -2.7467,1.1763 -2.1508,2.5702"
         style="fill:#f24140;fill-opacity:1;fill-rule:nonzero;stroke:none;stroke-width:0.99999994"
         id="path56"
         inkscape:connector-curvature="0" /><path
         d="m 4096.8747,3517.4804 c 20.2374,-13.0046 16.3765,-39.6658 -3.7185,-52.811 -227.5738,-148.7269 -693.1256,-294.1548 -1140.746,-246.4972 -291.9399,31.0727 -428.1216,162.9079 -429.469,163.867 -6.9185,4.923 -15.327,7.3398 -23.8781,6.905 -61.9172,-3.3758 -177.6411,-25.4209 -216.1208,29.8196 -3.1872,4.629 -6.4651,11.0097 -9.743,18.7202 -32.8178,78.155 33.4139,193.3925 91.6126,255.4483 119.2091,127.3598 299.4546,259.5659 535.7997,287.6975 600.9302,71.6079 1196.1206,-463.0856 1196.2631,-463.1494"
         style="fill:#ffcfa0;fill-opacity:1;fill-rule:nonzero;stroke:none;stroke-width:0.99999994"
         id="path58"
         inkscape:connector-curvature="0" /><path
         d="m 5255.9277,4454.3544 c 2.3841,-12.1862 5.7267,-39.947 2.5395,-56.9156 -9.2377,-49.5757 -49.868,-100.7625 -117.7321,-148.9443 -38.7777,11.227 -87.8165,22.1089 -122.9405,30.4716 l 238.1331,175.3883"
         style="fill:#ffcfa0;fill-opacity:1;fill-rule:nonzero;stroke:none;stroke-width:0.99999994"
         id="path60"
         inkscape:connector-curvature="0" /><path
         d="m 5234.8741,4629.3844 c 7.8126,-21.8788 13.2412,-79.5359 -3.8738,-115.2375 -0.298,-0.6522 -0.4406,-1.3171 -0.7516,-2.0588 0,0 -281.6655,-215.0538 -283.1555,-216.5882 -28.6461,5.5113 -68.6804,12.9278 -90.939,16.0734 52.9905,56.7108 113.4956,169.0074 286.3689,254.5788 27.7519,13.7335 58.8595,41.2001 92.351,63.2323"
         style="fill:#ffcfa0;fill-opacity:1;fill-rule:nonzero;stroke:none;stroke-width:0.99999994"
         id="path62"
         inkscape:connector-curvature="0" /><path
         d="m 5056.2743,4711.4267 c 27.2336,-19.6155 34.6704,-90.5585 9.6004,-119.4958 -63.7829,-43.4889 -120.7898,-93.0646 -166.9264,-137.7173 -74.1996,-71.8253 -120.3364,-131.1703 -121.1525,-133.0116 -19.499,-1.4705 -72.7097,-14.8331 -93.6209,-19.8328 0,0 89.8247,163.2788 127.7084,205.6554 29.3197,32.7604 111.0338,90.5583 172.4198,132.1292 41.9778,28.2723 71.9712,72.2729 71.9712,72.2729"
         style="fill:#ffcfa0;fill-opacity:1;fill-rule:nonzero;stroke:none;stroke-width:0.99999994"
         id="path64"
         inkscape:connector-curvature="0" /><path
         d="m 5793.0102,3607.2971 c 15.5473,-62.5801 32.2088,-144.4689 2.4487,-181.1936 -68.1621,-84.0241 -169.2198,-76.5948 -173.0158,-77.119 -6.8539,-0.8056 -13.5522,-3.67 -18.903,-7.8513 -40.7858,-31.8144 -157.7665,-121.8485 -402.896,-118.2555 -346.1223,5.2173 -677.0601,188.0219 -955.15,366.2105 -257.4896,165.0306 -659.4138,422.4609 -1093.6506,469.9906 84.8366,42.4533 224.3738,116.9255 386.8952,123.5365 15.923,0.2172 401.5614,-0.2302 632.1802,-14.6158 324.0969,-20.2803 415.256,71.5312 599.4401,67.8613 342.3909,-6.8284 560.0664,-145.4279 615.8035,-176.2832 106.0459,-58.7441 339.8646,-183.0221 406.8477,-452.2805"
         style="fill:#ffcfa0;fill-opacity:1;fill-rule:nonzero;stroke:none;stroke-width:0.99999994"
         id="path66"
         inkscape:connector-curvature="0" /><path
         d="m 3455.703,6844.2544 c -0.4535,2.7109 -15.2623,66.6081 -18.9807,64.8435 l -102.9233,-47.8111 c -1.775,-0.8693 -1.3345,-3.5164 0.6738,-3.5931 l 45.4629,-2.7876 c 4.0942,-0.2941 5.8821,-5.0764 2.8244,-7.7107 l -76.1171,-65.3037 c -3.7313,-3.2224 -0.1555,-8.951 4.6124,-7.4933 l 105.9681,33.3488 c 2.8243,0.8823 5.8042,-0.9462 6.1022,-3.7467 l 3.4204,-29.6661 c -0.9588,-0.2302 -1.9305,-0.3708 -2.8244,-0.5882 -25.1478,-6.6877 -41.1616,-21.0092 -51.3451,-37.8242 -11.5438,-19.104 -15.6381,-41.5071 -17.6461,-59.9332 -3.6407,-34.7427 47.4063,-206.3203 71.8156,-239.733 4.9104,-6.8284 23.1396,-27.0321 38.5444,21.3033 0.2203,0.6522 0,1.3938 -0.4404,1.9053 -66.6074,68.2321 -0.1426,99.3686 -2.2286,138.3694 -2.1635,39.8191 -54.558,102.9746 -69.6649,124.278 -1.1791,1.6112 -0.9587,3.4527 0,4.8464 0.9717,1.3938 2.9022,2.2761 4.9881,1.8413 l 71.8934,-21.6742 c 3.2002,-0.7289 6.1802,1.8413 5.7266,4.923 l -19.8617,132.2061"
         style="fill:#ffcfa0;fill-opacity:1;fill-rule:nonzero;stroke:none;stroke-width:0.99999994"
         id="path68"
         inkscape:connector-curvature="0" /><path
         d="m 4750.86,6781.8917 -76.1301,65.3037 c -3.0447,2.6343 -1.2697,7.4166 2.9022,7.7107 l 45.3982,2.7876 c 2.0082,0.077 2.5264,2.7238 0.7385,3.5931 l -102.9881,47.8111 c -3.7184,1.7646 -18.5272,-62.1326 -18.9806,-64.8435 l -19.797,-132.2061 c -0.4405,-3.0817 2.4617,-5.6519 5.6618,-4.923 l 74.1218,28.3491 c 0.3628,0.077 0.7386,0.1534 1.1013,0.1534 3.5889,0 6.0376,-3.8234 3.8739,-6.8283 -15.1068,-21.3033 -69.652,-91.1466 -71.8028,-130.9657 -2.1636,-39.0008 64.2883,-70.1373 -2.2412,-138.3694 -0.5184,-0.5115 -0.6739,-1.2531 -0.4406,-1.9053 15.327,-48.3354 33.5563,-28.1317 38.5444,-21.3033 24.3445,33.4127 75.4563,204.9903 71.738,239.733 -2.3063,21.738 -7.6572,48.8339 -24.487,69.7026 -10.0411,12.4802 -24.2539,22.6843 -44.4914,28.0548 -0.894,0.2174 -1.8656,0.358 -2.8245,0.5882 l 3.4205,29.6661 c 0.3758,2.8005 3.3427,4.629 6.1672,3.7467 l 105.9031,-33.3488 c 4.755,-1.4577 8.4086,4.2709 4.6124,7.4933"
         style="fill:#ffcfa0;fill-opacity:1;fill-rule:nonzero;stroke:none;stroke-width:0.99999994"
         id="path70"
         inkscape:connector-curvature="0" /><path
         d="m 4278.014,6794.6021 c -53.8844,3.0817 -91.0944,-31.2902 -108.2871,-51.7752 -2.967,-3.6058 -9.0045,-0.8822 -8.1753,3.67 20.0949,116.4779 91.7552,137.4871 150.7571,107.6675 34.3208,-17.2625 86.1841,-59.4217 114.0916,-82.9116 3.8609,-3.3118 9.7429,0.9462 7.2943,5.3577 -21.5072,38.5533 -66.8277,116.1199 -92.4289,134.1114 -53.133,37.4535 -86.0933,24.6792 -114.9725,20.1269 -101.8739,-15.8689 -120.0383,-180.3112 -121.6059,-196.2567 0.1555,-0.8056 0.2332,-1.6113 0.3756,-2.4168 32.2996,-84.9064 22.1809,-159.9029 12.1269,-200.0034 -1.7102,-6.8922 7.4498,-10.9328 11.6865,-5.2044 32.2995,43.4763 48.7409,92.0929 46.5901,128.012 0.3628,-0.2174 0.5183,-0.665 0.894,-0.8824 42.5608,-23.7968 87.4407,-35.1006 135.9483,-37.5302 3.7962,-0.1406 4.8456,5.1405 1.192,6.3169 -24.6295,7.4165 -48.2225,17.48 -70.844,29.2314 -5.8042,3.0816 -3.7184,11.828 2.9151,11.9687 65.1823,1.7007 166.5379,9.1811 195.2615,11.3165 2.0082,0.1407 2.4617,2.9412 0.5184,3.67 -37.3526,14.1809 -107.5228,20.4211 -126.8015,22.5437 -3.4981,0.3707 -4.0165,3.6059 -3.0576,6.9051 4.8456,15.8687 76.4281,8.887 110.8912,7.1351 1.3346,-0.077 -12.5026,9.2451 -19.2009,12.6209 0,0.077 -0.077,0.077 -0.1554,0.1536 -13.9148,9.5519 -27.8946,19.091 -42.0427,28.2722 0,0.077 -0.077,0.077 -0.077,0.077 -22.1677,17.6974 -52.1612,36.0597 -82.8931,37.8244 z m -381.5443,-48.1052 c 0.7384,-4.5522 -5.2083,-7.2758 -8.266,-3.67 -17.1798,20.485 -54.312,54.8569 -108.2742,51.7752 -1.5547,-0.077 -3.2,-0.3709 -4.7549,-0.5115 -1.7102,0.5115 -3.6536,0.5115 -5.882,-0.2942 -0.9717,-0.3708 -1.9435,-0.7416 -2.9799,-1.0996 -20.6133,-4.3349 -40.4878,-14.9864 -57.2272,-26.8913 -18.9677,-10.7923 -37.0544,-23.1319 -54.1695,-36.6479 -0.1424,-0.063 -0.2201,-0.1407 -0.3756,-0.2174 -8.9398,-4.1814 -17.8666,-8.8103 -26.7155,-13.8101 -1.4899,-0.8056 61.0232,7.9408 91.2368,4.3348 13.9926,-1.6879 25.2256,-7.7873 27.3893,-10.9457 1.9304,-2.8644 0.5182,-6.5344 -3.0577,-6.9051 -19.2009,-2.0459 -84.4608,-11.9687 -121.2951,-26.5844 -1.9434,-0.7289 -1.4899,-3.5165 0.5832,-3.5932 28.5032,-1.4066 125.2595,-5.8822 189.7032,-7.3526 6.6204,-0.1407 8.7064,-8.8871 2.9022,-11.9687 -22.6344,-11.7514 -46.1497,-21.8149 -70.7793,-29.2314 -3.6406,-1.0997 -2.6041,-6.4575 1.1919,-6.3169 46.4348,2.3529 89.6694,12.7743 130.5977,34.6021 2.6818,1.4577 6.0375,0.2046 6.7112,-2.5832 4.7549,-18.7969 21.4164,-81.5178 50.749,-125.7356 2.9022,-4.3349 9.9632,-1.6111 8.5511,3.3757 -6.9185,25.4208 -14.9514,68.4495 -9.6006,120.7488 0.8294,8.5163 2.086,17.2626 3.7314,26.2903 1.5548,8.5162 3.4983,17.3393 5.9469,26.2265 2.8245,10.7283 6.3226,21.5974 10.5721,32.6838 0.065,0.8055 0.2204,1.6112 0.2981,2.4168 -1.49,15.9455 -19.7191,180.3878 -121.606,196.2567 -28.8662,4.5523 -61.7618,17.3266 -114.9725,-20.1269 -25.5235,-17.9915 -70.844,-95.5581 -92.351,-134.1114 -2.4618,-4.4115 3.3426,-8.6695 7.2164,-5.3577 27.9074,23.4899 79.8485,65.6491 114.0786,82.9116 59.0928,29.8196 130.6753,8.8104 150.8479,-107.6675 z m 130.455,-321.4811 v -0.063 c -0.077,0 -0.2203,0.063 -0.298,0.063 -0.1555,0 -0.3628,0 -0.3628,0 -14.2258,1.3299 -41.7575,6.0996 -69.665,24.2445 -40.0343,26.0729 -63.0314,-3.4525 -82.3749,10.4216 -6.6335,4.7694 -9.9762,10.14 -11.3235,15.6513 -0.065,0.2813 -0.065,0.5755 0,0.8823 1.9433,12.1093 7.7476,23.1319 17.7238,31.8015 11.6088,10.1274 3.4981,27.9783 -12.2823,26.5844 -50.1531,-4.4754 -99.1271,-26.0728 -143.7091,-49.3582 -6.4004,-3.299 -3.8609,-12.9278 3.3556,-12.6336 70.3257,2.941 95.9917,-29.2314 103.299,-41.865 1.4769,-2.4935 0.1426,-5.7288 -2.7597,-6.5343 -78.203,-23.2854 -142.8021,2.1994 -162.4566,11.534 -2.9798,1.3937 -6.6206,-0.2302 -6.9962,-3.3758 -8.4085,-86.1597 56.2684,-270.729 145.5618,-352.5537 4.0164,-3.6699 10.2742,1.1124 7.2943,5.5111 -25.8864,38.4126 -68.9136,117.1429 -82.5952,232.7512 -0.4534,3.6701 3.7962,6.317 7.1388,4.4116 8.5511,-4.8463 20.3929,-9.7693 30.5894,-11.5339 2.0082,-0.2941 3.7184,-1.4706 4.6124,-3.3119 40.7729,-82.6176 150.537,-125.9532 254.9502,-125.9532 0.7385,0 1.4899,0.077 2.2285,0.077 v 0.063 c 0,0 0,0 0.077,0 v -0.063 c 0,0 0,0 0.077,0 h 0.077 v 0.063 c 0,0 0,0 0.065,0 v -0.063 c 0.7515,0 1.4901,-0.077 2.2415,-0.077 104.4003,0 214.1772,43.3356 254.8725,125.9532 0.8939,1.8413 2.6041,3.0178 4.6253,3.3119 10.2613,1.7646 22.0253,6.6876 30.5763,11.5339 3.4206,1.9054 7.5923,-0.7415 7.2167,-4.4116 -12.2047,-103.0386 -47.7044,-176.7818 -73.6685,-218.8003 -4.0941,-6.611 4.9882,-13.2858 10.3391,-7.7106 83.0485,86.671 141.5453,258.6066 133.5125,340.8023 -0.298,3.1456 -3.9516,4.7695 -6.9184,3.3758 -19.6546,-9.3346 -84.3184,-34.8194 -162.5344,-11.534 -2.8245,0.8055 -4.1719,4.0408 -2.7468,6.5343 7.3591,12.6336 33.0381,44.806 103.3639,41.865 7.1387,-0.2942 9.6653,9.3346 3.3426,12.6336 -44.6467,23.2854 -93.6207,44.8828 -143.6962,49.3582 -15.7805,1.3939 -23.9687,-16.457 -12.2823,-26.5844 9.9762,-8.6696 15.7027,-19.6922 17.6332,-31.8015 0.077,-0.3068 0.077,-0.601 0,-0.8823 -1.3344,-5.5113 -4.6901,-10.8819 -11.3106,-15.6513 -19.3435,-13.8741 -42.3405,15.6513 -82.3102,-10.4216 -27.8945,-18.1449 -55.4391,-22.9146 -69.7167,-24.2445 0,0 -0.2203,0 -0.298,0 -0.1555,0 -0.298,-0.063 -0.3758,-0.063 v 0.063 c -0.596,0.077 -1.3344,0.1536 -2.0082,0.2174 -0.7385,-0.063 -1.4122,-0.1405 -2.0859,-0.2174 z m 2.0859,-583.7575 c -0.6737,0 -1.4122,-0.063 -2.0859,-0.063 v -0.077 c -0.077,0 -0.2203,0 -0.298,0 -0.1555,0 -0.2203,0 -0.3628,0 v 0.077 c -59.326,1.0996 -123.9898,21.8786 -152.0399,37.9649 -96.8987,55.7391 -203.9031,217.9182 -241.0483,301.7249 -2.669,5.946 -12.1269,3.2352 -10.9349,-3.0944 9.5357,-49.2816 26.0547,-99.7396 50.6065,-145.7861 0.9588,-1.9052 -1.3345,-3.7466 -2.9021,-2.3527 -18.0867,15.7154 -36.316,34.1544 -53.2885,55.5984 -51.6431,65.5851 -97.4818,186.7815 -101.2001,291.9555 -5.6619,160.7086 14.5108,468.5968 14.5108,468.5968 0,0 3.3427,42.888 4.7549,43.6169 33.1935,16.7511 54.2602,28.2083 110.9561,41.9417 94.5924,67.938 170.282,74.0376 230.6963,40.3946 53.9622,5.5112 79.706,5.1404 149.8892,5.2939 v 0.077 c 0.1425,0 0.2073,-0.077 0.3628,-0.077 0.077,0 0.2202,0.077 0.298,0.077 v -0.077 c 0.7515,0 1.4122,0 2.0859,0 0.6738,0 1.3346,0 2.0082,0 v 0.077 c 0.1425,0 0.2202,-0.077 0.3758,-0.077 0.077,0 0.2203,0.077 0.2979,0.077 v -0.077 c 48.3652,-0.077 92.4937,-1.6879 132.9815,-4.5651 133.72,64.7796 238.5089,-37.8114 245.5701,-39.7935 49.6348,-14.2576 86.1839,-29.7557 112.9771,-43.2716 1.477,-0.7289 2.3062,-2.1226 2.3839,-3.7466 l 2.4488,-39.8703 c 0,0 20.0949,-307.8882 14.433,-468.5968 -3.6406,-105.174 -49.4794,-226.3704 -101.2001,-291.9555 -16.9725,-21.444 -35.1239,-39.883 -53.2885,-55.5984 -1.5546,-1.3939 -3.8738,0.4475 -2.9021,2.276 21.5849,40.4713 36.9897,84.3183 46.8104,127.7306 2.0082,8.887 -10.7147,12.9917 -14.4331,4.6928 -37.0674,-83.5126 -93.0248,-201.6144 -233.754,-285.1911 -27.6095,-16.3802 -92.6491,-36.8653 -152.027,-37.9649 v -0.077 c -0.077,0 -0.2202,0 -0.2979,0 -0.1556,0 -0.2333,0 -0.3758,0 v 0.077 c -0.6736,0 -1.3344,0.063 -2.0082,0.063 z m 71.738,248.914 c 48.5983,21.0093 81.7789,65.5852 78.1383,64.2681 -19.0584,-6.5343 -62.0598,-20.7151 -82.3102,-24.1676 -0.4405,-0.063 -0.8939,0.077 -1.2567,-0.063 -0.3757,-0.1535 -0.8292,-0.307 -1.1273,-0.3708 -72.6318,-11.8282 -150.4722,-3.5293 -214.9158,28.707 -0.7384,0.3708 -1.3344,-0.4348 -0.8162,-1.023 22.5436,-27.2493 47.7821,-55.5983 78.6695,-68.0786 9.8077,-4.0407 17.698,-11.2399 23.8132,-19.5387 14.9514,-20.6384 32.2867,-36.9421 48.2097,-36.9421 17.2705,0 35.4221,18.5031 50.9046,40.9828 4.9881,7.2631 12.36,12.6209 20.6909,16.2268"
         style="fill:#ffcfa0;fill-opacity:1;fill-rule:nonzero;stroke:none;stroke-width:0.99999994"
         id="path72"
         inkscape:connector-curvature="0" /><path
         d="m 3724.6329,6485.2432 c 0,0 -29.9675,-15.9838 -44.8541,-30.6763 -9.0433,-8.9254 -14.7052,-15.1656 -17.7757,-18.7204 1.2566,0.4731 2.7208,0.5243 4.0681,-0.1026 19.6545,-9.3346 84.2536,-34.8193 162.4566,-11.534 2.9023,0.8056 4.2366,4.0409 2.7597,6.5343 -7.3073,12.6336 -32.9733,44.8061 -103.299,41.865 -7.2165,-0.2941 -9.756,9.3347 -3.3556,12.6336 z m 711.3549,189.7993 0.3756,-0.013 -0.1555,0.026 c -0.077,0 -0.1423,-0.012 -0.2201,-0.012 z m -338.2321,253.2617 c 33.2065,28.2468 66.8795,44.1795 66.8795,44.1795 l -0.091,0.012 c -40.449,2.8644 -84.5387,4.4755 -132.8519,4.5522 v 0.077 c -0.077,0 -0.2203,-0.077 -0.298,-0.077 -0.1555,0 -0.2333,0.077 -0.3758,0.077 v -0.077 h -4.0941 v 0.077 c -0.077,0 -0.2203,-0.077 -0.298,-0.077 -0.1555,0 -0.2202,0.077 -0.3628,0.077 v -0.077 c -46.7327,-0.1025 -73.772,0.012 -102.5475,-1.5089 -15.3919,-0.9335 -30.8486,-2.1226 -46.1756,-3.6698 -0.3887,-0.037 -0.7645,-0.077 -1.1661,-0.1151 v 0 h -0.039 c 0,0 38.661,-14.2065 75.0677,-48.3482 24.8109,-23.2596 110.386,-25.702 146.3521,4.8976 z m -428.5361,-302.441 c 3.7832,0.4092 6.4652,0.6906 7.4627,0.6906 2.6431,0 -0.4405,0.7415 -7.4627,-0.6906 z m 660.8132,-153.2536 c -70.3258,2.941 -96.0048,-29.2314 -103.3639,-41.865 -1.4251,-2.4935 -0.077,-5.7288 2.7467,-6.5343 78.2161,-23.2854 142.8799,2.1994 162.5345,11.534 1.2178,0.5753 2.5134,0.5242 3.6924,0.1917 -3.0966,3.5549 -8.7195,9.7694 -17.711,18.6309 -13.28,13.1069 -38.4926,27.1983 -43.8045,30.1138 5.2341,-3.6956 2.7078,-12.3525 -4.0942,-12.0711 z m 212.8299,18.5797 0.2332,0.9206 c -0.2332,14.782 -0.5312,29.8323 -0.9069,44.9979 l -3.3557,97.9494 c 0.077,-0.4988 0.103,-0.908 0.1684,-1.3811 -0.8421,21.1628 -1.7491,41.75 -2.6689,61.2887 -1.3085,26.367 -2.643,52.4016 -3.835,75.2522 -2.5006,45.829 -4.4439,75.5847 -4.4439,75.5847 l -1.1661,18.9632 c -0.9328,10.1274 -2.047,21.0221 -2.8373,23.8992 -0.2722,0.2558 -0.4665,0.5754 -0.8423,0.7544 -24.1371,12.1861 -56.3201,25.9706 -98.7513,39.0136 -3.7314,0.9589 -7.5664,1.9309 -11.6346,2.9155 0,0 37.793,-58.7442 21.8569,-156.6039 0.077,-0.3453 0.1555,-0.6395 0.2333,-0.9975 -0.2851,0.4989 -0.4536,0.7672 -0.6739,1.1381 0.3758,-3.6827 -4.4827,-6.5086 -7.8383,-3.6315 -27.9075,23.4899 -79.7708,65.6491 -114.0786,82.9116 -59.0149,29.8196 -130.6752,8.8104 -150.7701,-107.6675 -0.8292,-4.5522 5.2083,-7.2758 8.1753,-3.67 17.1927,20.485 54.4027,54.8569 108.2871,51.7752 30.7319,-1.7647 60.7253,-20.127 82.8931,-37.8244 0,0 0.077,0 0.077,-0.077 14.1481,-9.1812 28.1277,-18.7203 42.0427,-28.2723 0.077,-0.077 0.1554,-0.077 0.1554,-0.1535 4.0552,-2.0459 10.7017,-6.253 15.029,-9.2578 21.7663,-4.0025 42.7681,-8.5547 58.458,-12.2758 66.97,-15.9199 -11.1682,-39.7934 -11.1682,-39.7934 128.991,-88.7427 -44.6986,-44.4992 -76.2596,-41.085 17.698,-3.5804 77.8143,-35.4204 101.3815,-76.4286 20.7168,-36.0469 24.3704,-65.8793 20.1986,-89.5355 -5.8951,-18.6692 -13.0727,-35.0239 -21.8181,-46.8264 -3.4851,-4.2837 -6.9704,-7.9024 -10.1576,-10.9074 -19.46,-16.1246 -45.3723,-11.7514 -79.9651,29.9091 3.4463,-36.0086 -5.7914,-89.1006 -24.2409,-144.7118 -0.052,-0.1408 -0.1031,-0.2942 -0.1553,-0.4348 -1.2569,-3.8234 -2.5785,-7.6596 -3.9258,-11.4957 -0.1296,-0.358 -0.2721,-0.7161 -0.4017,-1.0741 -1.2826,-3.6316 -2.6041,-7.2759 -3.9645,-10.9202 -0.1166,-0.2941 -0.2332,-0.5883 -0.3499,-0.8823 -1.3862,-3.7082 -2.8114,-7.4165 -4.2884,-11.1248 -0.1425,-0.358 -0.298,-0.7161 -0.4405,-1.0869 -1.4511,-3.6316 -2.9281,-7.2758 -4.4439,-10.8946 -0.1815,-0.4348 -0.3757,-0.8696 -0.5701,-1.3171 -1.49,-3.542 -3.0058,-7.0713 -4.5605,-10.6006 -0.3888,-0.8822 -0.8033,-1.7517 -1.192,-2.6341 -1.3864,-3.0817 -2.7596,-6.1506 -4.1978,-9.2067 -0.4794,-1.0358 -0.9847,-2.0459 -1.4641,-3.0817 -1.3733,-2.9026 -2.7337,-5.7926 -4.1459,-8.6569 -0.5442,-1.0996 -1.1143,-2.1866 -1.6584,-3.2863 -1.3863,-2.7876 -2.7595,-5.5496 -4.1848,-8.2988 -0.6089,-1.1765 -1.2438,-2.3273 -1.8657,-3.4909 -1.3862,-2.6597 -2.7727,-5.3067 -4.2107,-7.9279 -0.596,-1.1126 -1.2308,-2.1995 -1.8527,-3.2991 -1.4641,-2.647 -2.9281,-5.294 -4.431,-7.9026 -0.6479,-1.1252 -1.3086,-2.2121 -1.9694,-3.3246 -1.49,-2.5573 -2.9798,-5.1148 -4.5087,-7.6339 -0.7645,-1.2531 -1.5548,-2.4807 -2.3321,-3.7211 -1.4511,-2.3272 -2.8763,-4.6673 -4.3532,-6.9561 -0.8421,-1.3172 -1.7232,-2.5959 -2.5783,-3.8874 -1.4252,-2.1738 -2.8374,-4.3604 -4.2885,-6.483 -0.9459,-1.3939 -1.9305,-2.7365 -2.8761,-4.1047 -1.3994,-1.9948 -2.7727,-4.0024 -4.185,-5.946 -0.8939,-1.2276 -1.8138,-2.4168 -2.7078,-3.6315 -1.5029,-2.0203 -2.9929,-4.0662 -4.5217,-6.0228 -1.4899,-1.9309 -3.0058,-3.7849 -4.5087,-5.6646 -0.9717,-1.1893 -1.9174,-2.4296 -2.8892,-3.606 -1.9952,-2.4168 -4.0034,-4.744 -6.0375,-7.0713 -0.5053,-0.5755 -0.9976,-1.1892 -1.5159,-1.7646 -2.5394,-2.8643 -5.1047,-5.6519 -7.7089,-8.3628 -5.3508,-5.5751 -14.4331,1.0997 -10.3389,7.7107 1.5547,2.5191 3.1484,5.1787 4.7807,7.9279 0.596,1.023 1.2178,2.1227 1.8268,3.1713 1.0236,1.7775 2.0472,3.5419 3.0965,5.3961 0.7775,1.4066 1.5678,2.8899 2.3582,4.3349 0.8809,1.6111 1.7619,3.2095 2.6559,4.8847 0.894,1.6878 1.7879,3.4396 2.6949,5.1914 0.7902,1.5347 1.5935,3.0691 2.3839,4.6547 0.9716,1.9435 1.9564,3.9639 2.928,5.9843 0.7256,1.4833 1.4512,2.9666 2.1768,4.4883 1.0364,2.1994 2.0729,4.4626 3.1222,6.7515 0.6479,1.4323 1.2957,2.8644 1.9305,4.3094 1.1013,2.4807 2.1896,4.9997 3.278,7.5571 0.583,1.3556 1.153,2.7237 1.7231,4.1047 1.1402,2.7364 2.2673,5.524 3.3945,8.3628 0.5054,1.2787 1.0106,2.5831 1.5159,3.9 1.153,3.005 2.3062,6.0611 3.4463,9.1811 0.4275,1.1637 0.8422,2.3657 1.2697,3.5549 1.192,3.3502 2.384,6.726 3.5369,10.1913 0.324,0.9463 0.635,1.9309 0.9458,2.89 1.231,3.7593 2.4618,7.5571 3.6408,11.4443 0.1814,0.5883 0.3498,1.2021 0.5182,1.7904 7.0092,23.2853 13.0858,48.9873 17.452,77.1062 0.9069,6.9178 1.8008,14.1171 2.6947,21.623 0.1167,0.9975 -0.1295,1.8926 -0.5829,2.6725 l -6.4133,1.7008 c -0.065,-0.038 -0.1425,-0.077 -0.2073,-0.1151 -1.1143,-3.1074 -40.0344,-109.2277 -143.4759,-166.6546 -0.6478,-0.7671 -1.3086,-1.5344 -1.9564,-2.3016 1.0883,0.3708 2.1636,0.7288 3.1354,1.0613 0.2073,0.077 0.272,-0.037 0.2332,-0.2558 0,-0.063 -0.065,-0.1918 -0.103,-0.294 -0.077,-0.2047 -0.1684,-0.4476 -0.3499,-0.7673 -0.103,-0.1918 -0.2461,-0.4092 -0.3886,-0.6521 -0.1943,-0.3198 -0.4276,-0.6905 -0.7127,-1.087 -0.2201,-0.3452 -0.4534,-0.6776 -0.7255,-1.0613 -0.2719,-0.3707 -0.583,-0.7927 -0.894,-1.202 -1.5676,-2.097 -3.6795,-4.6929 -6.3355,-7.7106 -0.064,-0.063 -0.1166,-0.1279 -0.1684,-0.1917 -0.907,-1.0358 -1.9045,-2.1099 -2.9281,-3.2224 -0.2072,-0.2174 -0.4016,-0.4348 -0.6089,-0.6522 -1.0624,-1.138 -2.1765,-2.3017 -3.3556,-3.4908 -0.1555,-0.1662 -0.3239,-0.3325 -0.4924,-0.4988 -5.2472,-5.3194 -11.5568,-11.1376 -18.7993,-16.9685 -0.065,-0.063 -0.1295,-0.1151 -0.1943,-0.1535 -1.6325,-1.3299 -3.3426,-2.634 -5.0658,-3.9512 -0.3887,-0.2813 -0.7775,-0.5754 -1.1661,-0.8695 -1.6713,-1.2403 -3.3685,-2.4679 -5.1177,-3.6955 -0.4404,-0.3069 -0.8939,-0.6136 -1.3344,-0.9206 -1.8009,-1.2404 -3.6277,-2.468 -5.5064,-3.6699 v 0 c -7.7219,-5.4985 -15.7676,-10.2425 -24.2797,-13.6823 -8.279,-3.4141 -15.1068,-9.13 -20.7298,-15.792 -0.052,-0.063 -0.103,-0.1279 -0.1555,-0.1919 -0.9069,-1.3298 -1.8398,-2.6469 -2.7726,-3.9385 -0.026,-0.05 -0.077,-0.1024 -0.1031,-0.1533 -0.9457,-1.3043 -1.9174,-2.5957 -2.8762,-3.8745 -0.026,-0.026 -0.052,-0.05 -0.065,-0.09 -0.9845,-1.2786 -1.9692,-2.5447 -2.9538,-3.785 -0.077,-0.1026 -0.1555,-0.1917 -0.2333,-0.2813 -0.9458,-1.1765 -1.8915,-2.3273 -2.8504,-3.4525 -0.09,-0.115 -0.1943,-0.2175 -0.285,-0.3325 -0.9458,-1.0997 -1.8786,-2.1738 -2.8375,-3.2223 -0.1293,-0.1408 -0.2719,-0.2942 -0.4015,-0.4347 -0.9069,-0.9975 -1.8268,-1.9692 -2.7337,-2.9155 -0.2074,-0.2048 -0.4017,-0.3836 -0.6089,-0.5883 -0.8552,-0.8695 -1.7104,-1.7262 -2.5783,-2.5447 -0.2721,-0.2556 -0.5442,-0.4859 -0.8163,-0.7416 -0.8033,-0.7289 -1.5935,-1.4705 -2.3969,-2.1482 -0.311,-0.2813 -0.6348,-0.5242 -0.9587,-0.7928 -0.7644,-0.6266 -1.5158,-1.266 -2.2674,-1.8542 -0.3886,-0.294 -0.7644,-0.537 -1.153,-0.8184 -0.6997,-0.5243 -1.3993,-1.0485 -2.099,-1.5217 -0.4535,-0.3068 -0.8938,-0.5625 -1.3473,-0.8566 -0.6349,-0.4092 -1.2827,-0.8312 -1.9175,-1.202 -0.5053,-0.2813 -0.9976,-0.5243 -1.503,-0.7928 -0.583,-0.3068 -1.179,-0.6522 -1.762,-0.9334 -0.557,-0.2687 -1.1142,-0.4732 -1.6713,-0.7034 -0.5312,-0.2302 -1.0624,-0.4731 -1.5935,-0.6777 -0.6091,-0.2173 -1.2309,-0.3837 -1.8399,-0.5626 -0.4794,-0.1406 -0.9587,-0.3326 -1.4252,-0.4476 -0.7255,-0.1791 -1.438,-0.2941 -2.1636,-0.4091 -0.3628,-0.063 -0.7256,-0.1662 -1.1013,-0.2174 -1.0754,-0.1407 -2.1507,-0.2047 -3.2391,-0.2047 -13.9407,0 -28.9698,12.4931 -42.5348,29.4615 -1.9175,2.404 -3.8221,4.9104 -5.6748,7.4805 -6.1153,8.299 -14.0056,15.4981 -23.8133,19.5387 -3.822,1.5345 -7.5534,3.3376 -11.207,5.3324 -1.3087,0.716 -2.5783,1.5856 -3.861,2.3656 -2.3061,1.3681 -4.6124,2.6979 -6.8408,4.2197 -1.5936,1.0868 -3.1094,2.3145 -4.6771,3.4653 -1.8527,1.3811 -3.7444,2.7109 -5.5712,4.1814 -1.7231,1.3939 -3.3944,2.9155 -5.0788,4.386 -1.5806,1.3681 -3.1871,2.6853 -4.7289,4.1174 -1.8527,1.7134 -3.6536,3.5164 -5.4675,5.3068 -1.3085,1.2913 -2.6431,2.5317 -3.9387,3.8489 -2.0211,2.0715 -4.0034,4.2196 -5.9858,6.3422 -1.0105,1.0998 -2.0339,2.1484 -3.0316,3.2481 -2.2803,2.5317 -4.5086,5.0892 -6.7372,7.6467 -0.6218,0.7288 -1.2698,1.4321 -1.8916,2.1609 -2.7467,3.2096 -5.4416,6.4064 -8.1104,9.6159 -104.9705,58.2838 -143.5279,166.7953 -143.5279,166.7953 v 0.012 l -6.5686,-1.7391 c -0.2204,-0.3706 -0.3758,-0.7671 -0.4794,-1.1891 0,-0.026 -0.026,-0.05 -0.026,-0.077 -0.1031,-0.4476 -0.1296,-0.9208 -0.065,-1.4067 13.6817,-115.6083 56.7089,-194.3387 82.5952,-232.7511 2.98,-4.3988 -3.2779,-9.1812 -7.2943,-5.5113 -2.7856,2.5574 -5.5581,5.2171 -8.2919,7.9664 -5.4804,5.4985 -10.8572,11.3805 -16.1303,17.5951 -17.9054,21.0988 -34.4762,46.0208 -49.285,72.7714 -0.6479,1.1637 -1.2957,2.3274 -1.9305,3.5038 -14.1481,25.9962 -26.5988,53.6291 -36.9638,81.211 -0.5959,1.5728 -1.2049,3.1456 -1.7879,4.7184 -18.1256,49.3327 -29.4233,98.026 -31.5222,136.1829 -0.2073,3.8745 -0.3628,7.6849 -0.3757,11.3421 -0.039,6.0994 0.2072,11.8665 0.7255,17.2627 -32.3514,-39.0776 -57.1105,-45.5989 -76.1171,-33.2338 -5.8562,5.0765 -13.3707,12.7104 -20.1079,22.9017 -5.2342,8.9894 -9.8336,19.6922 -13.863,31.4947 -6.0375,24.5897 -3.7703,56.5319 18.864,95.9034 23.5543,41.0083 83.6835,72.8483 101.3686,76.4287 -31.5481,-3.4143 -205.2506,-47.6577 -76.2596,41.085 0,0 -78.1383,23.8735 -11.1682,39.7934 13.7464,3.2608 31.5871,7.1481 50.4381,10.7669 7.4109,4.0663 14.8478,7.9407 22.3105,11.4317 0.1555,0.077 0.2333,0.1534 0.3756,0.2173 17.1151,13.516 35.2019,25.8556 54.1695,36.6479 16.7393,11.9048 36.6139,22.5565 57.2272,26.8914 1.0365,0.3579 2.0082,0.7287 2.9799,1.0996 2.2284,0.8056 4.1718,0.8056 5.8821,0.2941 1.5547,0.1407 3.2001,0.4347 4.7548,0.5115 53.9622,3.0817 91.0944,-31.2901 108.2742,-51.7752 3.0577,-3.6058 9.0175,-0.8822 8.266,3.6701 -20.1727,116.4778 -91.7552,137.487 -150.8479,107.6676 -34.2301,-17.2627 -86.1712,-59.4218 -114.0785,-82.9119 -3.1484,-2.698 -7.4887,-0.3707 -7.7219,2.9667 -0.1031,-0.1791 -0.1553,-0.2685 -0.272,-0.4731 0.077,0.3581 0.1554,0.6521 0.2331,0.9974 -15.9359,97.8598 21.87,156.6038 21.87,156.6038 -0.4016,-0.09 -0.7515,-0.1789 -1.1401,-0.2813 -48.6372,-11.8536 -70.87,-22.0577 -97.5985,-35.4842 -3.9257,-1.982 -7.9679,-4.028 -12.1915,-6.1634 -1.4124,-0.7289 -4.755,-43.6169 -4.755,-43.6169 0,0 -6.1023,-112.3477 -10.3907,-203.686 -0.065,0.8055 -0.1167,1.5984 -0.1686,2.34 -1.9564,-47.2995 -3.6406,-97.847 -4.4439,-145.7731 l -0.013,-0.3964 c -0.012,-1.4066 -0.038,-2.8005 -0.064,-4.2199 l 0.013,-0.012 c -0.4924,-31.661 -0.6089,-62.0686 -0.1425,-89.4843 0.012,-0.4731 0.012,-0.9463 0.026,-1.4194 0.077,-4.1301 0.1555,-8.1965 0.2592,-12.1862 0.012,-0.652 0.039,-1.2914 0.052,-1.9436 0.1031,-4.0151 0.2203,-7.9664 0.3629,-11.8153 3.7182,-105.174 49.557,-226.3705 101.1999,-291.9555 16.9726,-21.444 35.2018,-39.8831 53.2885,-55.5985 1.5677,-1.3938 3.861,0.4476 2.9022,2.353 -24.5518,46.0463 -41.0708,96.5043 -50.6066,145.7858 -1.192,6.3297 8.266,9.0406 10.935,3.0945 37.1452,-83.8068 144.1496,-245.9858 241.0484,-301.7249 28.0499,-16.0861 92.7138,-36.8653 152.0398,-37.965 v -0.077 h 0.6609 v 0.077 c 0.6736,0 1.4121,0.063 2.0857,0.063 0.6739,0 1.3346,-0.063 2.0083,-0.063 v -0.077 h 0.4406 v 0.077 c 59.3129,1.0997 123.9769,21.8789 152.0269,37.965 4.8974,2.8132 9.743,5.8181 14.5756,8.8488 0.026,0.012 0.038,0.012 0.052,0.038 28.4515,18.1193 53.2495,37.6708 74.9898,58.0024 l 0.012,0.012 c 2.8633,2.6726 5.636,5.3452 8.3827,8.0432 0.298,0.2942 0.6089,0.5754 0.894,0.8695 2.5653,2.5063 5.0529,5.0509 7.5275,7.5828 0.4534,0.4731 0.9199,0.9334 1.3733,1.3938 2.3451,2.4423 4.6382,4.8846 6.9056,7.3269 0.5312,0.5755 1.0884,1.1509 1.6195,1.7391 2.1637,2.3528 4.2884,4.7185 6.3873,7.0969 0.596,0.6777 1.205,1.3554 1.8009,2.0332 2.0083,2.3017 3.9777,4.6032 5.921,6.905 0.6478,0.7672 1.2956,1.5216 1.9305,2.2761 1.8787,2.2505 3.7184,4.5011 5.5193,6.7515 0.6737,0.8312 1.3474,1.6497 1.9952,2.468 1.775,2.2249 3.4982,4.4371 5.2083,6.6493 0.6608,0.8695 1.3345,1.739 1.9954,2.6085 1.6583,2.1611 3.2778,4.3477 4.8843,6.5214 0.6737,0.9208 1.3475,1.8286 2.0082,2.7493 1.5677,2.1354 3.1096,4.2838 4.6254,6.432 0.6607,0.9462 1.3216,1.8797 1.9823,2.8259 1.464,2.1099 2.9021,4.2197 4.3273,6.3297 0.6737,0.9846 1.3346,1.9692 1.9953,2.9538 1.3862,2.0714 2.7596,4.1558 4.107,6.2273 0.6478,1.0102 1.2957,2.0075 1.9305,3.0049 1.3086,2.046 2.6042,4.0792 3.8739,6.1251 0.6607,1.0357 1.2956,2.0715 1.9304,3.1072 1.2308,2.0077 2.4486,4.0152 3.6537,6.0099 0.6348,1.0614 1.2567,2.1227 1.8915,3.1714 1.1661,1.9692 2.3191,3.9255 3.4464,5.882 0.6349,1.0996 1.2438,2.1865 1.8656,3.2734 1.1013,1.9181 2.1767,3.8234 3.2391,5.7287 0.6348,1.1252 1.2437,2.2378 1.8657,3.363 1.0234,1.867 2.034,3.7211 3.0446,5.5752 0.609,1.1381 1.2179,2.2761 1.8138,3.4142 0.9718,1.8157 1.9305,3.6316 2.8763,5.4345 0.609,1.1764 1.205,2.3401 1.8009,3.5036 0.9199,1.7647 1.8268,3.5295 2.7078,5.2812 0.5831,1.1508 1.1532,2.2889 1.7362,3.4397 0.868,1.7518 1.749,3.5036 2.6042,5.2428 0.583,1.1763 1.14,2.3399 1.6972,3.4908 0.8162,1.675 1.6455,3.3503 2.4228,4.9997 0.6218,1.2789 1.2179,2.5446 1.8138,3.7979 0.7385,1.5345 1.4641,3.0816 2.1767,4.6033 0.6349,1.3682 1.2697,2.7109 1.8916,4.0663 0.6478,1.3938 1.3085,2.8004 1.9433,4.1687 0.6867,1.5088 1.3605,2.9921 2.0341,4.4754 0.5572,1.2147 1.1273,2.4552 1.6713,3.6571 0.8423,1.8542 1.6585,3.6828 2.4877,5.5112 0.3498,0.78 0.7126,1.5985 1.0625,2.3785 1.1789,2.6342 2.3449,5.2299 3.4851,7.8001 3.7185,8.2988 16.4413,4.1942 14.433,-4.6928 -1.3344,-5.8693 -2.7855,-11.7515 -4.3143,-17.6334 -0.2332,-0.8952 -0.5053,-1.7903 -0.7384,-2.6982 -1.3864,-5.166 -2.8375,-10.332 -4.3663,-15.4852 -0.1555,-0.5114 -0.3239,-1.0229 -0.4793,-1.5345 -1.6973,-5.6391 -3.4982,-11.2654 -5.4028,-16.879 -0.026,-0.09 -0.052,-0.1662 -0.091,-0.2557 -2.0083,-5.946 -4.1461,-11.8664 -6.3874,-17.7613 v 0 c -3.8998,-11.9304 -8.862,-23.4132 -16.3895,-38.3614 -2.7725,-5.7542 -5.6358,-11.4827 -8.6417,-17.1219 -0.2203,-0.4092 -0.2203,-0.8057 -0.1555,-1.1893 0.026,-0.1151 0.064,-0.2173 0.103,-0.3196 0.091,-0.2302 0.2333,-0.422 0.3888,-0.5882 0.103,-0.1026 0.1943,-0.2174 0.3108,-0.3069 0.2591,-0.179 0.5571,-0.2814 0.868,-0.3197 h 0.013 c 0.3888,0.026 0.7905,0.1279 1.1402,0.4476 18.0867,15.7153 36.316,34.1544 53.2885,55.5983 51.6431,65.5853 97.4817,186.7816 101.2131,291.9555 1.153,33.0677 1.2178,72.4008 0.596,113.9846 z m -513.891,-577.8884 c -82.2065,0 -148.8397,26.073 -148.8397,58.2453 0,32.1725 66.6332,58.2582 148.8397,58.2582 82.1936,0 148.8398,-26.0857 148.8398,-58.2582 0,-32.1723 -66.6462,-58.2453 -148.8398,-58.2453 z m 352.8078,713.2529 c 0.9976,0 3.6925,-0.2814 7.4627,-0.6906 -7.0223,1.4321 -10.0928,0.6906 -7.4627,0.6906"
         style="fill:#d39a72;fill-opacity:1;fill-rule:nonzero;stroke:none;stroke-width:0.99999994"
         id="path74"
         inkscape:connector-curvature="0" /><path
         d="m 4242.6567,6652.1152 c 22.6215,-11.7514 46.2145,-21.8149 70.844,-29.2314 3.6536,-1.1764 2.6042,-6.4575 -1.192,-6.3169 -48.5076,2.4296 -93.3875,13.7334 -135.9483,37.5302 -0.3757,0.2174 -0.5312,0.665 -0.894,0.8824 2.1508,-35.9191 -14.2906,-84.5357 -46.5901,-128.012 -4.2367,-5.7284 -13.3967,-1.6878 -11.6865,5.2044 10.054,40.1005 20.1727,115.097 -12.1269,200.0034 -0.1424,0.8055 -0.2201,1.6112 -0.3756,2.4168 1.5676,15.9455 19.732,180.3878 121.6059,196.2567 28.8792,4.5523 61.8395,17.3266 114.9725,-20.1269 25.6012,-17.9915 70.9217,-95.5581 92.4289,-134.1114 2.4486,-4.4115 -3.4334,-8.6695 -7.2943,-5.3577 -27.9075,23.4899 -79.7708,65.6491 -114.0916,82.9116 -59.0019,29.8196 -130.6622,8.8104 -150.7571,-107.6675 -0.8292,-4.5522 5.2083,-7.2758 8.1753,-3.67 17.1927,20.485 54.4027,54.8569 108.2871,51.7752 30.7319,-1.7647 60.7253,-20.127 82.8931,-37.8244 0,0 0.077,0 0.077,-0.077 14.1481,-9.1812 28.1277,-18.7203 42.0427,-28.2723 0.077,-0.077 0.1554,-0.077 0.1554,-0.1535 6.6983,-3.3759 20.5353,-12.6976 19.2009,-12.6209 -34.4632,1.7519 -106.0457,8.7335 -110.8913,-7.1352 -0.9588,-3.2991 -0.4404,-6.5343 3.0577,-6.905 19.2786,-2.1226 89.4488,-8.3628 126.8013,-22.5437 1.9435,-0.7288 1.49,-3.5293 -0.5182,-3.67 -28.7236,-2.1355 -130.0793,-9.6159 -195.2615,-11.3165 -6.6336,-0.1408 -8.7194,-8.8871 -2.9151,-11.9688"
         style="fill:#282828;fill-opacity:1;fill-rule:nonzero;stroke:none;stroke-width:0.99999994"
         id="path76"
         inkscape:connector-curvature="0" /><path
         d="m 6059.4525,4094.1794 c 13.9925,-147.998 -73.526,-438.7772 -151.0682,-501.7921 -3.4204,-2.7876 -7.2165,-4.8464 -11.233,-6.2401 3.4982,-63.68 2.0083,-156.8852 -29.6954,-204.6323 -67.2032,-101.1973 -168.4812,-128.306 -201.1435,-134.6228 -33.8672,-22.7611 -161.6663,-122.2705 -438.8103,-122.2705 -7.7347,0 -15.5474,0.077 -23.5023,0.1407 -314.7168,4.7056 -617.1901,170.3116 -877.2837,326.9027 -309.4955,-149.9034 -814.2135,-343.0273 -1262.8834,-343.0273 -62.2023,0 -124.4175,3.1457 -186.4125,9.9868 -266.3385,29.4487 -358.003,141.5662 -399.1646,167.4985 -55.5039,-1.688 -217.5848,1.8285 -280.5514,92.2462 -18.1516,25.9962 -86.7023,110.3144 -94.5796,119.5724 -4.6124,5.4345 -114.0916,136.1701 -140.0554,402.0399 -5.7396,58.6161 -1.3346,352.3235 135.741,473.2897 -1.7103,5.0764 -2.384,10.5109 -1.6455,16.0862 81.3385,612.9252 449.1881,1048.5311 494.6512,1071.0108 7.8125,3.8874 13.6946,17.4032 18.0219,27.3133 2.371,5.3705 4.5994,10.4344 7.4368,15.2807 16.3636,27.7609 54.623,40.7653 102.9881,54.8695 7.6699,2.2762 17.9312,5.2812 22.1809,6.905 7.2943,4.8464 393.2177,169.8003 440.5464,189.0448 113.8712,46.1233 184.4819,73.5259 195.7927,97.911 18.1644,39.2948 58.121,50.9056 98.9846,59.7159 0.8162,0.1406 1.4122,0.8823 1.4899,1.7518 1.4122,28.4385 10.7795,50.9694 28.5682,68.7564 1.3474,1.317 2.7597,2.6341 4.1719,3.9639 17.6333,16.0864 40.3323,25.7789 64.4437,27.6843 1.5676,0.1533 2.3061,1.918 1.2567,3.0817 -6.9186,7.7234 -13.5392,15.5746 -19.784,23.5154 -60.2847,76.4542 -106.7194,202.9316 -115.5814,312.5813 h -0.5183 c -29.2418,0 -56.7736,14.8458 -75.5988,40.6246 -32.2995,44.2817 -91.3146,233.9915 -85.3678,290.2548 0.7516,6.8283 1.6455,13.4392 2.8373,19.8328 0.1426,0.8825 -0.3756,1.7646 -1.1918,2.0588 -21.4294,7.7106 -38.7,24.3083 -46.8882,45.9057 -11.2329,29.6022 -3.4981,62.0559 19.5767,83.6534 0.5182,0.4347 0.7386,1.0996 0.5182,1.7645 -4.8326,15.7922 -4.3921,33.2722 3.2001,50.4581 7.6701,17.3265 22.3234,30.7787 39.6717,38.8472 l 89.0732,41.4303 v 1.1636 c -1.5677,0.3709 -3.2003,0.7417 -4.8456,1.1125 -22.7639,5.6519 -227.1852,59.5625 -326.7659,196.7683 -121.1525,166.9358 -65.9337,332.5801 27.2338,433.4962 16.6097,17.9146 16.5319,18.4261 14.2905,31.1365 -7.5146,43.4123 4.0294,103.32 62.1505,163.8414 51.4227,53.5526 111.4614,43.7065 155.823,50.5348 41.9001,6.5341 81.4162,12.6336 139.7574,54.5755 79.2526,56.9153 184.2618,140.7221 330.7046,140.7221 70.0278,0 139.8354,-22.6204 214.9937,-53.2583 72.3339,-29.3719 126.2183,-56.9155 169.5306,-79.0244 65.558,-33.4127 108.3519,-62.3501 154.1906,-62.3501 10.352,0 21.2869,0.8825 33.3361,2.7111 16.3765,2.4295 32.8178,3.6697 48.961,3.6697 80.6777,0 169.2716,-15.2933 234.2335,-73.5386 50.166,-45.0235 82.6859,-110.0972 109.0257,-177.3831 44.6466,-113.8309 52.3555,-225.8844 86.5855,-269.4374 11.829,-15.0632 23.2174,-28.285 34.23,-41.0593 45.3206,-52.5168 119.9607,-116.7847 115.8666,-225.3347 -3.1225,-82.5665 -70.546,-156.962 -181.1265,-200.8089 -0.7384,-0.2941 -1.1918,-1.023 -1.1142,-1.8415 0.4406,-6.3166 0.065,-12.6974 -1.1919,-18.9377 -0.4535,-2.5062 -1.1142,-4.9997 -1.8656,-7.4292 -0.1555,-0.6522 0,-1.3939 0.5181,-1.8286 23.1527,-21.5975 30.8097,-54.0512 19.6545,-83.6534 -8.266,-21.5974 -25.4587,-38.1951 -46.8882,-45.9057 -0.8939,-0.2942 -1.3345,-1.1763 -1.192,-2.0588 1.1142,-6.3936 2.086,-13.0812 2.7597,-19.8328 5.9469,-56.2633 -53.0682,-245.9731 -85.3549,-290.2548 -18.838,-25.7788 -46.3698,-40.6246 -75.5469,-40.6246 h -0.064 c -8.862,-109.6497 -55.2966,-236.1271 -115.5684,-312.5813 -7.074,-8.9638 -14.5886,-17.7869 -22.4012,-26.3671 1.8657,0.1407 3.7184,0.1407 5.5841,0.1407 27.454,0 53.5735,-9.9101 73.3704,-28.055 1.49,-1.3298 2.9022,-2.6469 4.2367,-4.0406 17.7109,-17.7103 27.1689,-40.2412 28.5811,-68.6797 0.077,-0.8695 0.6738,-1.6112 1.49,-1.7518 40.7858,-8.8103 80.8202,-20.4211 98.9717,-59.7159 11.0905,-24.0142 88.3346,-51.7877 213.4258,-105.9156 67.2812,-27.8377 232.2642,-97.975 312.5532,-132.4874 22.0382,-8.8999 39.5938,-16.163 53.7419,-22.109 0.8163,0.1406 1.5548,0.294 2.4487,0.358 l -0.5183,-1.1764 c 35.5646,-15.2806 48.0024,-22.1089 53.2885,-25.6254 4.2367,-1.6238 14.5108,-4.6288 22.1679,-6.905 48.3002,-14.1042 86.6245,-27.1086 103.0011,-54.8695 2.8243,-4.8463 5.0528,-9.9102 7.359,-15.2807 4.3273,-9.9101 10.2742,-23.4259 18.0867,-27.3133 27.9723,-13.81 128.2266,-143.5224 221.4717,-315.2407 88.853,-163.7137 201.8949,-421.8728 238.5737,-725.0682 10.4297,-10.3576 21.8051,-23.3493 33.336,-39.7296 48.7538,-69.2679 79.2526,-165.4782 90.7187,-286.1503 z m -217.6756,-288.797 c 17.4259,-34.9601 143.4111,17.3393 134.1087,287.2498 -8.4864,246.9321 -117.3564,295.0373 -118.3929,295.5488 -2.9799,1.1764 -3.7314,1.8413 -6.2579,3.7466 -222.508,164.6725 -451.6368,169.5955 -534.6206,164.9666 -0.4405,-14.0275 -2.6042,-28.9372 -7.0611,-44.3584 11.0905,-17.9149 33.2583,-63.3859 22.5437,-125.7487 -9.9763,-58.0151 -45.5408,-113.2555 -105.67,-164.9539 39.8141,-13.2218 80.289,-27.9141 120.7768,-44.2177 255.1057,-102.9748 419.8684,-221.8054 494.5733,-372.2331 z M 5795.42,3426.1035 c 29.7732,36.7247 13.0987,118.6135 -2.4616,181.1936 -66.9702,269.2584 -300.789,393.5364 -406.8348,452.2805 -55.7371,30.8553 -273.4125,169.4548 -615.8036,176.2832 -184.1839,3.6699 -275.3431,-88.1416 -599.44,-67.8613 -230.6187,14.3856 -616.2442,14.833 -632.1672,14.6158 -162.5344,-6.611 -302.0586,-81.0832 -386.8953,-123.5365 434.224,-47.5297 836.1482,-304.96 1093.6378,-469.9906 278.0899,-178.1886 609.0276,-360.9932 955.15,-366.2105 245.1294,-3.593 362.1101,86.4411 402.8959,118.2555 5.3509,4.1813 12.0621,7.0457 18.903,7.8513 3.7962,0.5242 104.8537,-6.9051 173.0158,77.119 z m 39.6717,1067.405 c -76.6485,467.4205 -317.6968,813.9385 -384.3041,890.1753 0,0 -96.3675,-90.0468 -102.6901,-85.8526 -17.1149,11.2399 49.1943,139.111 49.1943,139.111 0.3759,0.5882 0.8811,1.0229 1.3346,1.5344 -0.4535,46.865 -48.8186,54.2048 -72.8522,48.9237 -21.8052,6.3807 -260.9101,126.1832 -552.3317,247.3667 -13.2412,5.4986 -27.9852,3.8106 -40.177,-2.5702 -0.1553,-0.1533 -0.2979,-0.2173 -0.4534,-0.3707 -22.4659,-21.8788 -67.6438,-86.9652 -147.9328,-139.0344 -0.077,-0.077 -0.077,-0.077 -0.1555,-0.077 -37.2099,-20.5617 -105.5275,-48.6167 -133.7977,-59.9334 78.2032,-31.8015 235.7494,-86.4409 327.5045,-120.7358 17.1927,-6.3937 22.699,-28.2085 16.0786,-45.1003 -0.298,-0.8184 -152.5582,-429.6729 -229.4397,-1082.7622 -2.0083,-16.8917 22.0253,-8.2989 38.7128,-4.0408 0.065,0 0.1425,0.077 0.2072,0.077 0.1555,0.2942 0.2981,0.7416 0.4535,1.0357 l 146.3781,259.4763 c 2.6042,4.6289 6.1024,8.593 10.352,11.6746 l 287.768,210.5783 c 8.5511,6.2402 19.4989,8.593 29.9803,6.3935 3.3558,-0.7287 6.4133,-1.9819 9.3804,-3.5291 67.1255,250.3846 207.8547,479.5426 225.1123,468.4434 17.1927,-11.0865 -105.8903,-236.421 -161.2517,-582.8754 -0.3757,-2.2761 -0.3757,-4.4755 -0.8941,-6.611 28.2704,15.6515 57.2272,29.8196 86.6894,41.8012 16.0008,6.5343 34.3854,1.317 44.4265,-12.4931 1.1142,-1.5471 12.8783,-18.0682 22.2456,-44.2178 83.2041,5.946 332.052,-4.1813 530.4619,-136.3874 z m -576.6633,-96.0697 c 3.2001,16.9686 -0.1555,44.7294 -2.5395,56.9156 l -238.1331,-175.3883 c 35.1369,-8.3627 84.1628,-19.2446 122.9404,-30.4716 67.8641,48.1818 108.5074,99.3686 117.7322,148.9443 z m -27.467,116.7081 c 17.115,35.7016 11.6864,93.3587 3.8739,115.2375 -33.4915,-22.0322 -64.5991,-49.4988 -92.3512,-63.2323 -172.8732,-85.5714 -233.3782,-197.868 -286.3559,-254.5788 22.2458,-3.1456 62.2801,-10.5621 90.9391,-16.0734 1.4769,1.5344 283.1555,216.5882 283.1555,216.5882 0.2981,0.7417 0.4406,1.4066 0.7386,2.0588 z m -165.1255,77.784 c 25.07,28.9373 17.6332,99.8803 -9.6006,119.4958 0,0 -29.9933,-44.0006 -71.9581,-72.2729 -61.399,-41.5709 -143.1132,-99.3688 -172.4328,-132.1292 -37.8836,-42.3766 -127.6954,-205.6554 -127.6954,-205.6554 20.9111,4.9997 74.109,18.3623 93.6079,19.8328 0.8291,1.8413 46.9659,61.1863 121.1526,133.0116 46.1495,44.6527 103.1435,94.2284 166.9264,137.7173 z M 4912.604,7068.7068 c 3.7962,100.7752 -43.7527,128.5361 -106.564,208.4428 -62.8111,79.9067 -82.1546,191.9858 -127.7731,303.1827 -45.6962,111.1968 -154.5663,237.1628 -311.8794,213.7366 -133.4348,-19.9094 -180.5433,47.7344 -389.875,132.8583 -209.267,85.1239 -355.2694,23.5028 -482.2261,-67.7079 -138.5657,-99.5221 -208.8137,-39.9596 -280.5645,-114.6494 -81.183,-84.5483 16.9725,-93.8701 -64.8065,-182.4465 -81.7919,-88.6531 -123.7567,-226.7285 -32.3772,-352.6943 82.5303,-113.6903 260.6897,-162.2431 283.0908,-167.9717 1.1791,-0.2942 2.371,0.5115 2.371,1.7646 0.3757,18.145 0.5312,135.5819 -48.4429,153.1386 -72.4765,25.9963 -142.4265,88.423 -178.0039,151.8853 -1.0365,1.9822 1.6323,4.0409 3.2779,2.4169 78.3584,-75.3546 211.7934,-84.8298 301.6829,-63.9611 37.2876,8.6568 -158.2848,61.685 -225.488,263.2994 -0.4406,1.3939 1.1141,2.7238 2.1635,1.5473 83.5669,-86.5304 197.205,-145.2873 316.8676,-172.5238 180.5433,-41.0595 158.5827,-2.4296 151.1458,2.4168 -14.3684,9.1811 -203.3072,187.587 -210.8994,377.0794 0.3757,0 75.0806,-169.6595 205.3931,-253.7605 193.1885,-124.7127 384.7444,-132.5002 335.5501,71.9021 -0.5312,2.1354 2.4488,3.299 3.4982,1.317 45.3205,-84.4588 175.322,-175.8229 310.1692,-221.9461 100.9021,-34.5891 113.7028,-17.9914 222.0546,-73.5898 92.7268,-47.5297 157.7666,-162.9079 224.1536,-181.9352 1.9304,-0.5114 1.8527,-3.235 -0.1555,-3.5931 -52.1613,-9.9228 -104.8537,-3.9001 -146.7539,23.6433 -1.1788,0.8057 -2.8892,0 -2.8892,-1.4705 l -2.021,-176.5645 c 0,-0.8057 0.6089,-1.6113 1.4121,-1.8413 102.2626,-29.3721 244.093,27.6968 247.8892,128.0246 z m -166.3953,-294.3084 c 4.7549,-1.4577 8.4085,4.2709 4.6124,7.4933 l -76.1301,65.3037 c -3.0446,2.6343 -1.2567,7.4166 2.9023,7.7107 l 45.3981,2.7876 c 2.0081,0.077 2.5265,2.7238 0.7515,3.5931 l -103.0011,47.8111 c -3.7183,1.7646 -18.5402,-62.1326 -18.9806,-64.8435 l -19.7971,-132.2061 c -0.4403,-3.0817 2.4618,-5.6519 5.6619,-4.923 l 74.1219,28.3491 c 0.3757,0.077 0.7386,0.1534 1.1142,0.1534 3.563,0 6.0247,-3.8234 3.8739,-6.8283 -15.1068,-21.3033 -69.665,-91.1466 -71.8157,-130.9657 -2.1636,-39.0008 64.2882,-70.1373 -2.2414,-138.3694 -0.5183,-0.5115 -0.6608,-1.2531 -0.4406,-1.9053 15.3271,-48.3354 33.5694,-28.1317 38.5445,-21.3033 24.3316,33.4127 75.4693,204.9903 71.738,239.733 -2.3063,21.738 -7.6571,48.8339 -24.474,69.7026 -10.054,12.4802 -24.2669,22.6843 -44.5043,28.0548 -0.894,0.2174 -1.8657,0.358 -2.8375,0.5882 l 3.4334,29.6661 c 0.3628,2.8005 3.3427,4.629 6.1672,3.7467 z m -230.5408,-2441.739 c 84.6033,616.7355 181.6445,935.2754 213.7238,1028.7749 -71.0642,37.1595 -176.3714,75.4312 -246.9952,104.6626 43.3901,-45.6884 96.7433,-106.9388 127.0994,-142.1161 0.077,-0.1534 0.1555,-0.3069 0.2332,-0.4475 6.7761,-15.5748 7.6571,-31.8784 4.9882,-45.6117 -15.1069,-76.6076 -117.2916,-76.6076 -155.7583,-76.6076 -36.018,0 -108.6499,4.1174 -189.8458,31.5074 -106.4085,35.8552 -187.0861,94.0877 -240.1415,167.6903 -0.7384,1.0229 -2.3061,1.0229 -3.0576,0 -69.1337,-95.1234 -165.6438,-168.4959 -280.3959,-207.1257 -69.8853,-23.5795 -153.232,-37.6837 -223.0265,-37.6837 -35.2018,0 -124.1324,-2.6341 -137.9048,67.3498 -5.8042,29.1673 15.4826,74.5488 54.4805,92.9879 0,0 0.077,0 0.1425,0.077 3.9515,2.3528 11.6087,10.2808 20.3928,20.2676 0.077,0.077 89.8247,148.8036 187.6823,184.7226 1.6324,0.6523 1.6324,2.8643 -0.077,3.4526 -31.6258,9.8333 -203.3848,81.3005 -310.0136,194.3387 -13.4743,14.2448 -34.541,19.2445 -52.9127,12.0454 -222.4434,-87.9881 -521.1463,-237.1627 -542.9515,-243.5434 -72.4116,7.1223 -71.44,-32.3259 -64.0032,-45.177 0,0 77.9829,-151.962 60.4274,-162.4603 -85.5752,124.7896 -130.5976,95.7756 -146.4559,77.0424 -40.2547,-47.5937 -106.0457,-135.2878 -174.5057,-255.8959 -85.4326,-150.4916 -162.8324,-371.9261 -208.2953,-663.6642 183.588,80.8017 406.8475,141.9753 711.5103,129.6356 -6.3226,213.66 -172.5105,654.0486 -152.1046,662.8588 17.7757,7.6339 221.8215,-443.1759 226.7448,-671.8864 13.0985,-1.9819 60.3495,-0.7416 92.4936,-79.9834 16.5967,-40.842 33.8543,-138.7403 23.4505,-247.597 -5.4415,-56.0332 54.1694,-96.4406 105.0739,-71.0965 87.2206,43.4891 173.6119,75.3546 315.5979,84.0242 0.3757,0 0.6737,0 1.0494,0 3.7184,0.077 446.2083,-4.2581 683.59,-18.3623 89.0861,-5.281 147.9458,3.9 200.3403,14.1042 49.259,9.552 92.649,44.576 99.4251,93.7169 z m 111.1763,1451.2359 c 3.0447,6.9816 3.8608,18.733 -4.6901,37.3127 -8.253,17.8508 -100.0212,22.9145 -107.5357,36.8782 -7.5145,13.8739 9.458,55.9691 -6.7631,72.196 -0.596,0.5755 -1.1919,1.0997 -1.788,1.6879 -13.8501,12.6335 -37.5078,11.0224 -49.0388,-3.3758 -62.2153,-77.7073 -151.5864,-112.4499 -217.7532,-135.2877 -0.5183,-1.1893 -0.7385,-1.7774 -1.2697,-2.8772 11.7641,-31.06 3.4333,-68.002 -10.5593,-101.0565 -0.596,-1.3939 0.5959,-2.8645 2.1508,-2.5702 13.7723,3.0049 27.7648,5.3577 41.6797,8.5929 34.9685,8.0815 68.7581,19.1678 101.6536,33.3488 1.3345,0.5114 3.0577,-1.1125 1.7102,-2.2121 -48.5984,-37.9652 -116.1644,-86.6584 -181.2041,-84.1649 -14.6663,0.5882 8.4863,126.618 -65.6355,124.9301 -18.2293,-0.4348 -37.8837,-0.7288 -58.9504,-1.253 -17.8535,-0.4348 -47.0954,-0.5754 -64.9619,-0.1408 -22.6861,0.665 -43.6751,0.665 -63.0961,1.3938 -76.2079,2.941 -47.4843,-124.3419 -62.0728,-124.9301 -65.1174,-2.4935 -132.6835,46.1997 -181.2818,84.1649 -1.3344,1.0996 0.4536,2.7235 1.7102,2.2121 32.8956,-14.181 66.7628,-25.2673 101.6536,-33.3488 13.9926,-3.2352 27.9075,-5.588 41.7575,-8.5929 1.4899,-0.2943 2.6819,1.1763 2.086,2.5702 -13.3967,31.5841 -21.5849,66.7615 -11.9196,97.0286 -1.3346,2.6341 -2.0082,4.1047 -3.3428,6.8284 -66.089,22.8377 -155.5249,57.5803 -217.8179,135.3644 -11.531,14.3982 -35.124,16.0093 -49.039,3.3758 -0.5958,-0.5882 -1.1919,-1.1124 -1.7101,-1.6879 -16.2988,-16.2269 0.6737,-58.3221 -6.8537,-72.196 -7.5146,-13.9637 -99.192,-19.0274 -107.458,-36.8782 -8.6288,-18.5797 -7.8126,-30.3311 -4.7678,-37.3127 2.319,-5.2812 73.6814,-126.3242 329.383,-178.0353 40.1121,-8.1452 57.0715,-10.7154 84.3831,-12.4801 1.0495,-0.077 1.9305,-0.9591 1.8657,-2.0588 -8.6288,-116.4907 -159.412,-212.2662 -157.8443,-209.031 24.4871,49.5757 101.6536,135.876 75.9875,131.5412 -16.6744,-8.964 -31.4055,-6.611 -61.9948,-22.109 -129.2632,-65.5083 -209.4873,-216.6649 -263.2163,-238.109 -53.729,-21.38 66.9702,-58.7568 271.1713,9.2579 186.1274,61.9153 265.6779,198.1492 296.7855,267.7879 0.5183,1.1764 -0.298,2.4168 -1.6454,2.5702 -39.8142,3.0817 -78.2031,24.1549 -103.2084,65.5851 -5.7266,9.3218 1.788,17.6975 11.3106,11.9687 66.0762,-39.947 160.5262,-43.6935 226.3821,1.5473 1.192,0.8055 0,-8.0815 -0.6738,-9.1811 -24.4092,-42.53 -62.4354,-63.0278 -104.1151,-68.9738 -1.1921,-0.1406 -1.9305,-1.1765 -1.5548,-2.2761 17.5555,-59.9332 66.4519,-168.1889 248.4073,-229.5927 146.5208,-49.3583 301.087,-24.1677 247.3581,-2.7877 -53.7291,21.4441 -96.225,115.749 -187.9024,189.1216 -16.2989,13.0812 -57.6807,27.5434 -82.4528,24.9732 -25.6012,4.3349 51.5654,-81.9653 75.9747,-131.5411 1.6454,-3.2352 -175.62,91.2233 -135.4431,209.9773 0.2332,0.7417 0.9717,1.2532 1.7878,1.3299 27.6873,1.6879 44.9578,2.8643 85.0569,12.4801 246.6973,59.051 326.9991,172.7541 329.3054,178.0353 z m -24.9275,1410.4832 c 0,0.6522 -0.298,1.2404 -0.8163,1.6112 -197.8916,136.9756 -944.3705,136.9756 -1142.2362,0 -0.5181,-0.3708 -0.8161,-0.959 -0.8161,-1.6112 0.3627,-11.2399 4.0163,-112.68 4.0941,-224.0942 0,-1.4705 1.5547,-2.4168 2.8245,-1.6879 23.4375,13.81 192.9552,105.1101 564.9767,105.1101 393.4381,0 542.6535,-92.3358 564.8214,-107.8209 1.2698,-0.8824 2.9799,0.077 2.9799,1.6111 0.1555,111.4142 3.7185,215.4246 4.172,226.8818 z m -59.4686,-817.1737 c 5.6617,160.7086 -14.4332,468.5969 -14.4332,468.5969 l -2.4616,39.8702 c -0.064,1.624 -0.881,3.0178 -2.371,3.7466 -26.7931,13.516 -63.3293,29.014 -112.9642,43.2716 -7.074,1.982 -111.85,104.5731 -245.5829,39.7936 -40.4878,2.8771 -84.6164,4.4882 -132.9815,4.565 v 0.077 c -0.077,0 -0.2202,-0.077 -0.298,-0.077 -0.1426,0 -0.2332,0.077 -0.3758,0.077 v -0.077 c -0.6737,0 -1.3473,0 -2.0082,0 -0.6737,0 -1.3344,0 -2.0858,0 v 0.077 c -0.065,0 -0.2203,-0.077 -0.298,-0.077 -0.1426,0 -0.2204,0.077 -0.3759,0.077 v -0.077 c -70.1701,-0.1535 -95.914,0.2174 -149.8761,-5.2938 -60.4273,33.6428 -136.1039,27.5433 -230.6834,-40.3947 -56.709,-13.7333 -77.7626,-25.1905 -110.9561,-41.9417 -1.4122,-0.7288 -4.7678,-43.6168 -4.7678,-43.6168 0,0 -20.1727,-307.8883 -14.5108,-468.5969 3.7183,-105.174 49.5571,-226.3704 101.2,-291.9555 16.9726,-21.444 35.2148,-39.883 53.2884,-55.5984 1.5678,-1.3939 3.874,0.4475 2.9023,2.3528 -24.5518,46.0465 -41.0708,96.5045 -50.6066,145.7859 -1.192,6.3298 8.266,9.0406 10.9479,3.0945 37.1323,-83.8067 144.1496,-245.9857 241.0354,-301.7248 28.0499,-16.0863 92.7268,-36.8653 152.0268,-37.965 v -0.077 c 0.1555,0 0.2333,0 0.3759,0 0.077,0 0.2331,0 0.298,0 v 0.077 c 0.6736,0 1.4121,0.063 2.0858,0.063 0.6609,0 1.3345,-0.063 2.0082,-0.063 v -0.077 c 0.1426,0 0.2332,0 0.3758,0 0.077,0 0.2203,0 0.298,0 v 0.077 c 59.3907,1.0997 124.4175,21.5847 152.027,37.965 140.729,83.5766 196.6995,201.6784 233.7539,285.1911 3.7185,8.2989 16.4413,4.1941 14.4332,-4.6928 -9.8207,-43.4123 -25.2255,-87.2594 -46.8105,-127.7305 -0.9588,-1.8287 1.3346,-3.6701 2.9022,-2.2762 18.1644,15.7154 36.3159,34.1544 53.2885,55.5984 51.7207,65.5851 97.5594,186.7815 101.2001,291.9555 z M 4093.1175,3464.6694 c 20.0949,13.1452 23.9687,39.8064 3.7313,52.811 -0.1554,0.063 -595.346,534.7573 -1196.2631,463.1494 -236.3582,-28.1316 -416.5906,-160.3377 -535.8127,-287.6975 -58.1987,-62.0558 -124.4304,-177.2933 -91.6126,-255.4483 3.278,-7.7105 6.5559,-14.0912 9.756,-18.7202 38.4668,-55.2405 154.1907,-33.1954 216.1079,-29.8196 8.551,0.4348 16.9595,-1.982 23.891,-6.905 1.3346,-0.9591 137.5161,-132.7943 429.456,-163.867 447.6204,-47.6576 913.1852,97.7703 1140.7462,246.4972 z m -623.3182,3242.4559 c 3.2001,-0.7289 6.1801,1.8413 5.7395,4.923 l -19.8746,132.2061 c -0.4536,2.7109 -15.2624,66.6081 -18.9808,64.8435 l -102.9232,-47.8111 c -1.788,-0.8693 -1.3346,-3.5164 0.6736,-3.5931 l 45.463,-2.7876 c 4.0941,-0.2941 5.8821,-5.0764 2.8374,-7.7107 l -76.1301,-65.3037 c -3.7183,-3.2224 -0.1555,-8.951 4.6124,-7.4933 l 105.968,33.3488 c 2.8245,0.8823 5.8043,-0.9462 6.1024,-3.7467 l 3.4332,-29.6661 c -0.9716,-0.2302 -1.9434,-0.3708 -2.8373,-0.5882 -25.1478,-6.6877 -41.1486,-21.0092 -51.345,-37.8242 -11.531,-19.104 -15.6252,-41.5071 -17.6332,-59.9332 -3.6536,-34.7427 47.3934,-206.3203 71.8155,-239.733 4.8975,-6.8284 23.1267,-27.0321 38.5445,21.3033 0.2203,0.6522 0,1.3938 -0.4534,1.9053 -66.5944,68.2321 -0.1425,99.3686 -2.2285,138.3694 -2.1506,39.8191 -54.5451,102.9746 -69.652,124.278 -1.192,1.6112 -0.9718,3.4527 0,4.8464 0.9587,1.3938 2.9022,2.2761 4.9881,1.8413 z M 3017.1907,4066.9302 c 49.2591,106.7213 37.5079,252.1492 22.4011,344.2548 -6.6205,40.3178 -39.0627,72.0426 -80.1464,77.4004 -53.729,7.0585 -106.0457,10.217 -156.9503,10.217 -258.0079,0 -463.7637,-83.0013 -608.8851,-167.4602 -130.4551,-75.9554 -152.4027,-266.1 -146.9741,-405.7992 8.7065,-224.5931 116.4624,-291.3674 148.9046,-252.9548 27.4668,32.5431 60.8808,68.6795 100.1766,105.4681 119.5847,111.9384 319.0958,251.7145 590.7983,281.8921 43.688,4.8462 87.0649,7.1991 130.6753,6.9818"
         style="fill:#282828;fill-opacity:1;fill-rule:nonzero;stroke:none;stroke-width:0.99999994"
         id="path78"
         inkscape:connector-curvature="0" /><path
         d="m 5975.8856,4092.6322 c 9.3024,-269.9105 -116.6828,-322.2099 -134.1087,-287.2498 -74.7049,150.4277 -239.4676,269.2583 -494.5733,372.2331 -40.4878,16.3036 -80.9627,30.9959 -120.7768,44.2177 60.1292,51.6984 95.6937,106.9388 105.67,164.9539 10.7146,62.3628 -11.4532,107.8338 -22.5437,125.7487 4.4569,15.4212 6.6206,30.3309 7.0611,44.3584 82.9838,4.6289 312.1126,-0.2941 534.6206,-164.9666 2.5265,-1.9053 3.278,-2.5702 6.2579,-3.7466 1.0365,-0.5115 109.9065,-48.6167 118.3929,-295.5488"
         style="fill:#ffffff;fill-opacity:1;fill-rule:nonzero;stroke:none;stroke-width:0.99999994"
         id="path80"
         inkscape:connector-curvature="0" /><path
         d="m 5450.7876,5383.6838 c 66.6073,-76.2368 307.6556,-422.7548 384.3041,-890.1753 -198.4099,132.2061 -447.2578,142.3334 -530.4619,136.3874 -9.3673,26.1496 -21.1314,42.6707 -22.2456,44.2178 -10.0411,13.8101 -28.4257,19.0274 -44.4265,12.4931 -29.4622,-11.9816 -58.419,-26.1497 -86.6894,-41.8012 0.5184,2.1355 0.5184,4.3349 0.8941,6.611 55.3614,346.4544 178.4444,571.7889 161.2517,582.8754 -17.2576,11.0992 -157.9868,-218.0588 -225.1123,-468.4434 -2.9671,1.5472 -6.0246,2.8004 -9.3804,3.5291 -10.4814,2.1995 -21.4292,-0.1533 -29.9803,-6.3935 l -287.768,-210.5783 c -4.2496,-3.0816 -7.7478,-7.0457 -10.352,-11.6746 L 4604.443,4281.255 c -0.1554,-0.2941 -0.298,-0.7415 -0.4535,-1.0357 -0.064,0 -0.1424,-0.077 -0.2072,-0.077 -16.6875,-4.2581 -40.7211,-12.8509 -38.7128,4.0408 76.8815,653.0893 229.1417,1081.9438 229.4397,1082.7622 6.6204,16.8918 1.1141,38.7066 -16.0786,45.1003 -91.7551,34.2949 -249.3013,88.9343 -327.5045,120.7358 28.2702,11.3167 96.5878,39.3717 133.7977,59.9334 0.077,0 0.077,0 0.1555,0.077 80.289,52.0692 125.4669,117.1556 147.9328,139.0344 0.1555,0.1534 0.2981,0.2174 0.4534,0.3707 12.1918,6.3808 26.9358,8.0688 40.177,2.5702 291.4216,-121.1835 530.5265,-240.986 552.3317,-247.3667 24.0336,5.2811 72.3987,-2.0587 72.8522,-48.9237 -0.4535,-0.5115 -0.9587,-0.9462 -1.3346,-1.5344 0,0 -66.3092,-127.8711 -49.1943,-139.111 6.3226,-4.1942 102.6901,85.8526 102.6901,85.8526"
         style="fill:#ffffff;fill-opacity:1;fill-rule:nonzero;stroke:none;stroke-width:0.99999994"
         id="path82"
         inkscape:connector-curvature="0" /><path
         d="m 3879.2769,6158.5451 c 64.4436,-32.2364 142.284,-40.5352 214.9158,-28.707 0.2981,0.063 0.7516,0.2172 1.1273,0.3707 0.3628,0.1407 0.8162,0 1.2567,0.063 20.2504,3.4525 63.2518,17.6334 82.3102,24.1676 3.6406,1.3171 -29.54,-43.2588 -78.1383,-64.268 -8.3309,-3.606 -15.7028,-8.9638 -20.6909,-16.2269 -15.4825,-22.4797 -33.6341,-40.9827 -50.9046,-40.9827 -15.923,0 -33.2583,16.3036 -48.2097,36.942 -6.1152,8.299 -14.0055,15.498 -23.8132,19.5386 -30.8874,12.4804 -56.1259,40.8294 -78.6695,68.0788 -0.5182,0.5882 0.077,1.3937 0.8162,1.023"
         style="fill:#282828;fill-opacity:1;fill-rule:nonzero;stroke:none;stroke-width:0.99999994"
         id="path92"
         inkscape:connector-curvature="0" /><path
         d="m 4026.9247,6425.0158 c 0.6737,0.077 1.3474,0.1536 2.0859,0.2174 0.6738,-0.063 1.4122,-0.1405 2.0082,-0.2174 v -0.063 c 0.077,0 0.2202,0.063 0.3758,0.063 0.077,0 0.2979,0 0.2979,0 14.2777,1.3299 41.8223,6.0996 69.7168,24.2445 39.9697,26.0729 62.9667,-3.4525 82.3102,10.4216 6.6205,4.7694 9.9762,10.14 11.3106,15.6513 0.077,0.2813 0.077,0.5755 0,0.8823 -1.9305,12.1093 -7.657,23.1319 -17.6332,31.8015 -11.6864,10.1274 -3.4982,27.9783 12.2823,26.5844 50.0755,-4.4754 99.0495,-26.0728 143.6962,-49.3582 6.3227,-3.299 3.7961,-12.9278 -3.3426,-12.6336 -70.3258,2.941 -96.0048,-29.2314 -103.3639,-41.865 -1.4251,-2.4935 -0.077,-5.7288 2.7467,-6.5343 78.2161,-23.2854 142.8799,2.1994 162.5345,11.534 2.9668,1.3937 6.6204,-0.2302 6.9184,-3.3758 8.0327,-82.1957 -50.464,-254.1313 -133.5126,-340.8023 -5.3508,-5.5752 -14.4331,1.0996 -10.339,7.7106 25.9641,42.0185 61.4638,115.7617 73.6685,218.8003 0.3756,3.6701 -3.7961,6.317 -7.2167,4.4116 -8.551,-4.8463 -20.3151,-9.7693 -30.5764,-11.5339 -2.0211,-0.2941 -3.7313,-1.4706 -4.6252,-3.3119 -40.6953,-82.6176 -150.4722,-125.9532 -254.8725,-125.9532 -0.7514,0 -1.49,0.077 -2.2415,0.077 v 0.063 c -0.065,0 -0.065,0 -0.065,0 v -0.063 h -0.077 c -0.077,0 -0.077,0 -0.077,0 v 0.063 c -0.077,0 -0.077,0 -0.077,0 v -0.063 c -0.7386,0 -1.49,-0.077 -2.2285,-0.077 -104.4132,0 -214.1773,43.3356 -254.9502,125.9532 -0.894,1.8413 -2.6042,3.0178 -4.6125,3.3119 -10.1964,1.7646 -22.0382,6.6876 -30.5893,11.5339 -3.3426,1.9054 -7.5922,-0.7415 -7.1388,-4.4116 13.6816,-115.6083 56.7088,-194.3386 82.5951,-232.7512 2.98,-4.3987 -3.2778,-9.181 -7.2942,-5.5111 -89.2934,81.8247 -153.9703,266.394 -145.5618,352.5537 0.3756,3.1456 4.0164,4.7695 6.9962,3.3758 19.6545,-9.3346 84.2536,-34.8194 162.4566,-11.534 2.9023,0.8055 4.2366,4.0408 2.7597,6.5343 -7.3073,12.6336 -32.9733,44.806 -103.299,41.865 -7.2165,-0.2942 -9.756,9.3346 -3.3556,12.6336 44.582,23.2854 93.556,44.8828 143.7091,49.3582 15.7804,1.3939 23.8911,-16.457 12.2823,-26.5844 -9.9762,-8.6696 -15.7805,-19.6922 -17.7238,-31.8015 -0.064,-0.3068 -0.064,-0.601 0,-0.8823 1.3473,-5.5113 4.69,-10.8819 11.3235,-15.6513 19.3435,-13.8741 42.3406,15.6513 82.3749,-10.4216 27.9075,-18.1449 55.4392,-22.9146 69.6649,-24.2445 0,0 0.2074,0 0.3629,0 0.077,0 0.2202,-0.063 0.298,-0.063 z m 188.2003,-132.4234 c 4.2497,3.0818 0.8293,9.4753 -4.2366,7.8641 -37.6634,-11.8281 -119.8958,-30.2671 -181.7353,8.1455 v 0.1534 c -0.065,0 -0.1425,-0.077 -0.1425,-0.077 -0.077,0 -0.1554,0.077 -0.1554,0.077 v -0.1534 c -61.8396,-38.4126 -144.0719,-19.9736 -181.7223,-8.1455 -5.053,1.6112 -8.4864,-4.7823 -4.3144,-7.8641 19.3434,-14.1042 47.4711,-26.5844 79.9261,-35.6248 32.4422,-9.0277 69.2764,-14.5391 106.1106,-14.5391 0,0 0.077,0 0.1554,0 0,0 0.077,0 0.1425,0 73.6037,0 147.2851,22.0323 185.9719,50.1639"
         style="fill:#282828;fill-opacity:1;fill-rule:nonzero;stroke:none;stroke-width:0.99999994"
         id="path94"
         inkscape:connector-curvature="0" /><path
         d="m 3932.7078,6646.9747 c -5.3508,-52.2993 2.6821,-95.328 9.6006,-120.7488 1.4121,-4.9868 -5.6489,-7.7106 -8.5511,-3.3757 -29.3326,44.2178 -45.9941,106.9387 -50.749,125.7356 -0.6737,2.7878 -4.0294,4.0409 -6.7112,2.5832 -40.9283,-21.8278 -84.1629,-32.2492 -130.5977,-34.6021 -3.796,-0.1406 -4.8325,5.2172 -1.1919,6.3169 24.6296,7.4165 48.1449,17.48 70.7793,29.2314 5.8042,3.0816 3.7182,11.828 -2.9022,11.9687 -64.4437,1.4704 -161.2,5.946 -189.7032,7.3526 -2.0731,0.077 -2.5266,2.8643 -0.5832,3.5932 36.8343,14.6157 102.0942,24.5385 121.2951,26.5844 3.5759,0.3707 4.9881,4.0407 3.0577,6.9051 -2.1637,3.1584 -13.3967,9.2578 -27.3893,10.9457 -30.2136,3.606 -92.7267,-5.1404 -91.2368,-4.3348 8.8489,4.9998 17.7757,9.6287 26.7155,13.8101 0.1555,0.077 0.2332,0.1534 0.3756,0.2174 17.1151,13.516 35.2018,25.8556 54.1695,36.6479 16.7394,11.9049 36.6139,22.5564 57.2272,26.8913 1.0364,0.358 2.0082,0.7288 2.9799,1.0996 2.2284,0.8057 4.1718,0.8057 5.882,0.2942 1.5549,0.1406 3.2002,0.4348 4.7549,0.5115 53.9622,3.0817 91.0944,-31.2902 108.2742,-51.7752 3.0577,-3.6058 9.0044,-0.8822 8.266,3.67 -20.1726,116.4779 -91.7551,137.4871 -150.8479,107.6675 -34.2301,-17.2625 -86.1712,-59.4217 -114.0786,-82.9116 -3.8738,-3.3118 -9.6782,0.9462 -7.2164,5.3577 21.507,38.5533 66.8275,116.1199 92.351,134.1114 53.2107,37.4535 86.1063,24.6792 114.9725,20.1269 101.8869,-15.8689 120.116,-180.3112 121.606,-196.2567 -0.077,-0.8056 -0.2332,-1.6113 -0.2981,-2.4168 -4.2495,-11.0864 -7.7476,-21.9555 -10.5721,-32.6838 -2.4486,-8.8872 -4.3921,-17.7103 -5.9469,-26.2265 -1.6454,-9.0277 -2.902,-17.774 -3.7314,-26.2903"
         style="fill:#282828;fill-opacity:1;fill-rule:nonzero;stroke:none;stroke-width:0.99999994"
         id="path96"
         inkscape:connector-curvature="0" /><path
         d="m 4508.7881,5083.2122 c 0,18.8098 -15.4826,34.0137 -34.4632,34.0137 -1.7101,0 -3.3427,-0.2943 -4.9104,-0.5243 8.3308,3.8234 17.6333,6.0355 27.454,6.0355 36.3161,0 65.7134,-29.0268 65.7134,-64.8562 0,-35.8423 -29.3973,-64.9329 -65.7134,-64.9329 -36.3159,0 -65.7004,29.0906 -65.7004,64.9329 0,12.6336 3.7185,24.385 10.041,34.3717 -0.8162,-2.8642 -1.4123,-5.8822 -1.4123,-9.0404 0,-18.7971 15.4697,-34.0777 34.5281,-34.0777 18.9806,0 34.4632,15.2806 34.4632,34.0777"
         style="fill:#282828;fill-opacity:1;fill-rule:nonzero;stroke:none;stroke-width:0.99999994"
         id="path100"
         inkscape:connector-curvature="0" /><path
         d="m 4439.7968,4672.2851 c -36.3159,0 -65.7133,29.0013 -65.7133,64.8436 0,10.1403 2.384,19.6921 6.6206,28.2084 -0.1425,-1.3171 -0.4406,-2.647 -0.4406,-4.1047 0,-18.7331 15.4826,-34.0137 34.5282,-34.0137 18.9676,0 34.4502,15.2806 34.4502,34.0137 0,18.7971 -15.4826,34.0649 -34.4502,34.0649 -1.788,0 -3.4335,-0.294 -5.066,-0.5114 9.0045,4.552 19.2009,7.199 30.0711,7.199 36.3161,0 65.7783,-29.0139 65.7783,-64.8562 0,-35.8423 -29.4622,-64.8436 -65.7783,-64.8436"
         style="fill:#282828;fill-opacity:1;fill-rule:nonzero;stroke:none;stroke-width:0.99999994"
         id="path102"
         inkscape:connector-curvature="0" /><path
         d="m 5078.9214,4769.3777 c 3.3558,-0.7287 6.4133,-1.9819 9.3804,-3.5291 51.954,193.7505 147.9198,374.6881 196.6996,441.5392 -78.4364,-76.1473 -205.4061,-276.3551 -447.4132,-600.6238 l 211.3529,156.2202 c 8.5511,6.2402 19.4989,8.593 29.9803,6.3935"
         style="fill:#b4b7b9;fill-opacity:1;fill-rule:nonzero;stroke:none;stroke-width:0.99999994"
         id="path110"
         inkscape:connector-curvature="0" /><path
         d="m 3745.5182,5193.386 c -58.6912,-19.7944 -126.8015,-32.7862 -188.4855,-36.4816 -26.4564,-27.8632 -256.5827,-275.6265 64.4566,-134.5462 339.8386,149.3408 404.4248,378.1535 404.4248,378.1535 -69.1337,-95.1234 -165.6438,-168.4959 -280.3959,-207.1257"
         style="fill:#b4b7b9;fill-opacity:1;fill-rule:nonzero;stroke:none;stroke-width:0.99999994"
         id="path112"
         inkscape:connector-curvature="0" /><path
         d="m 4412.7963,5068.8778 c 0,0 -9.9243,56.3017 54.5711,73.4365 28.1537,7.4804 11.233,39.9085 -5.7265,58.9997 -0.9069,0 -1.8397,0 -2.6819,0 -36.018,0 -108.6499,4.1174 -189.8458,31.5074 -105.4886,35.5355 -185.6351,93.0903 -238.7033,165.7852 l -4.4958,1.9051 c 0,0 37.1192,-304.7171 386.8822,-331.6339"
         style="fill:#b4b7b9;fill-opacity:1;fill-rule:nonzero;stroke:none;stroke-width:0.99999994"
         id="path114"
         inkscape:connector-curvature="0" /><path
         d="m 3017.1907,4066.9302 v 0 c 0,0 -197.5289,33.0418 -492.4356,-60.5982 -156.8725,-49.8059 -222.9228,-126.5541 -284.3347,-139.5459 -78.1383,-16.521 -116.7994,1.5727 -139.5243,78.4874 0.1166,-6.6622 0.2721,-13.273 0.5053,-19.7305 5.4934,-150.1592 52.7443,-229.6823 92.6362,-254.4766 0.5052,0.5115 1.0365,0.9719 1.5029,1.5218 27.4668,32.5431 60.8808,68.6795 100.1766,105.4681 119.5847,111.9384 319.0958,251.7145 590.7983,281.8921 43.688,4.8462 87.0649,7.1991 130.6753,6.9818"
         style="fill:#b4b7b9;fill-opacity:1;fill-rule:nonzero;stroke:none;stroke-width:0.99999994"
         id="path120"
         inkscape:connector-curvature="0" /><path
         d="m 5622.3653,3348.9716 0.038,0.013 v 0 z m 0,0 c -4.9103,-0.5881 -9.73,-2.2633 -14.0444,-4.6928 9.2118,2.7364 13.863,4.6161 14.0444,4.6928 z m -837.4826,116.2989 c -80.587,23.3364 -184.8965,62.1326 -260.5214,100.5069 -81.8049,41.494 -54.5192,73.3213 18.8254,69.4212 410.9934,-21.8788 864.3275,16.1502 864.3275,16.1502 0,0 -724.337,28.1571 -1103.873,145.658 -193.0072,59.767 -402.3259,120.4674 -561.4917,165.7082 -180.7247,67.1708 -373.8743,108.2303 -590.306,96.3638 v 0 c 434.2368,-47.5297 836.161,-304.96 1093.6506,-469.9906 22.8157,-14.6284 46.0461,-29.2825 69.5484,-43.8726 149.0341,-82.6304 519.8508,-216.5883 729.053,-247.6354 247.4487,-36.7374 425.336,-5.7798 561.4657,44.8828 -0.6736,-0.4476 -1.3991,-0.8439 -2.0211,-1.3298 1.4899,1.1636 3.1095,2.1994 4.7808,3.1456 -118.9499,-1.4194 -409.1798,1.0357 -823.4382,120.9917"
         style="fill:#d39a72;fill-opacity:1;fill-rule:nonzero;stroke:none;stroke-width:0.99999994"
         id="path128"
         inkscape:connector-curvature="0" /><path
         d="m 3567.4235,7244.2867 c -22.3752,-6.8284 -42.8717,-14.296 -61.1657,-22.4158 l 3.6018,-179.723 57.5639,202.1388"
         style="fill:#b4b7b9;fill-opacity:1;fill-rule:nonzero;stroke:none;stroke-width:0.99999994"
         id="path130"
         inkscape:connector-curvature="0" /><path
         d="m 4554.873,7221.3594 c -16.3635,7.3142 -34.4891,14.117 -54.1825,20.3955 l 58.4579,-206.9596 -4.2754,186.5641"
         style="fill:#b4b7b9;fill-opacity:1;fill-rule:nonzero;stroke:none;stroke-width:0.99999994"
         id="path132"
         inkscape:connector-curvature="0" /><path
         d="m 2273.3937,4464.2004 c 29.54,11.5595 60.1293,22.5053 91.8976,32.6583 14.2388,404.8402 240.4006,772.7642 240.4006,772.7642 -243.8599,-234.1707 -318.4222,-701.5526 -332.2982,-805.4225"
         style="fill:#b4b7b9;fill-opacity:1;fill-rule:nonzero;stroke:none;stroke-width:0.99999994"
         id="path134"
         inkscape:connector-curvature="0" /><path
         d="m 5478.2028,5237.7957 c 0,0 160.6038,-301.3158 193.5382,-663.3446 30.4858,-10.9332 61.101,-23.8226 91.198,-39.052 -31.3408,173.9688 -120.3751,523.4919 -284.7362,702.3966"
         style="fill:#b4b7b9;fill-opacity:1;fill-rule:nonzero;stroke:none;stroke-width:0.99999994"
         id="path136"
         inkscape:connector-curvature="0" /><path
         d="m 4575.7711,4274.1839 c 0.2981,0.012 0.6089,0.012 0.92,0.026 180.9061,760.3861 281.3676,988.0736 281.3676,988.0736 l -87.2982,31.5842 c -45.7739,-148.3049 -146.9091,-512.9298 -205.2376,-1005.95 l 10.2482,-13.7333"
         style="fill:#b4b7b9;fill-opacity:1;fill-rule:nonzero;stroke:none;stroke-width:0.99999994"
         id="path138"
         inkscape:connector-curvature="0" /></g></g></svg>